<svg xmlns="http://www.w3.org/2000/svg" xmlns:xlink="http://www.w3.org/1999/xlink" xmlns:lucid="lucid" width="1677.17" height="1090.68"><g transform="translate(501.5 -76.02473958333334)" lucid:page-tab-id="0_0"><path d="M-305.33 341.33a6 6 0 0 1 6-6H-106a6 6 0 0 1 6 6v108a6 6 0 0 1-6 6h-193.33a6 6 0 0 1-6-6z" stroke="#fcce14" stroke-width="3" fill="#6db1ff"/><use xlink:href="#a" transform="matrix(1,0,0,1,-293.3333333333333,347.3333333333333) translate(4.981119791666671 39.29774305555556)"/><use xlink:href="#b" transform="matrix(1,0,0,1,-293.3333333333333,347.3333333333333) translate(163.40125868055554 39.29774305555556)"/><use xlink:href="#c" transform="matrix(1,0,0,1,-293.3333333333333,347.3333333333333) translate(11.502387152777786 70.15711805555556)"/><path d="M40 341.33a6 6 0 0 1 6-6h193.33a6 6 0 0 1 6 6v108a6 6 0 0 1-6 6H46a6 6 0 0 1-6-6z" stroke="#fcce14" stroke-width="3" fill="#6db1ff"/><use xlink:href="#d" transform="matrix(1,0,0,1,51.99999999999997,347.3333333333333) translate(14.8498263888889 39.29774305555556)"/><use xlink:href="#e" transform="matrix(1,0,0,1,51.99999999999997,347.3333333333333) translate(42.84461805555556 70.15711805555556)"/><use xlink:href="#f" transform="matrix(1,0,0,1,51.99999999999997,347.3333333333333) translate(74.203125 70.15711805555556)"/><path d="M385.33 341.33a6 6 0 0 1 6-6h193.34a6 6 0 0 1 6 6v108a6 6 0 0 1-6 6H391.33a6 6 0 0 1-6-6z" stroke="#fcce14" stroke-width="3" fill="#6db1ff"/><use xlink:href="#g" transform="matrix(1,0,0,1,397.33333333333326,347.3333333333333) translate(5.908854166666671 39.29774305555556)"/><use xlink:href="#h" transform="matrix(1,0,0,1,397.33333333333326,347.3333333333333) translate(38.195095486111114 70.15711805555556)"/><path d="M385.33 626a6 6 0 0 1 6-6h193.34a6 6 0 0 1 6 6v108a6 6 0 0 1-6 6H391.33a6 6 0 0 1-6-6z" stroke="#fcce14" stroke-width="3" fill="#6db1ff"/><use xlink:href="#i" transform="matrix(1,0,0,1,397.33333333333326,632) translate(28.35894097222223 39.29774305555556)"/><use xlink:href="#j" transform="matrix(1,0,0,1,397.33333333333326,632) translate(59.435329861111114 70.15711805555556)"/><path d="M385.33 966a6 6 0 0 1 6-6h193.34a6 6 0 0 1 6 6v108a6 6 0 0 1-6 6H391.33a6 6 0 0 1-6-6z" stroke="#fcce14" stroke-width="3" fill="#6db1ff"/><use xlink:href="#k" transform="matrix(1,0,0,1,397.3333333333332,972) translate(13.428385416666671 39.29774305555556)"/><use xlink:href="#l" transform="matrix(1,0,0,1,397.3333333333332,972) translate(15.669053819444443 70.15711805555556)"/><use xlink:href="#m" transform="matrix(1,0,0,1,397.3333333333332,972) translate(58.34483506944444 70.15711805555556)"/><path d="M-498.5 395.33h171.05M-498.46 395.33H-500" stroke="#fcce14" stroke-width="3" fill="none"/><path d="M-311.7 395.33l-14.25 4.64v-9.27z" stroke="#fcce14" stroke-width="3" fill="#fcce14"/><path d="M-97 395.33H17.88" stroke="#fcce14" stroke-width="3" fill="none"/><path d="M-96.96 396.8h-1.54v-2.94h1.54z" stroke="#fcce14" stroke-width=".05" fill="#fcce14"/><path d="M33.65 395.33l-14.27 4.64v-9.27z" stroke="#fcce14" stroke-width="3" fill="#fcce14"/><path d="M247.33 395.33h120.12" stroke="#3a414a" fill="none"/><path d="M247.35 395.8h-.52v-.94h.52z" stroke="#3a414a" stroke-width=".05" fill="#3a414a"/><path d="M382.2 395.33l-14.25 4.64v-9.27z" stroke="#3a414a" fill="#3a414a"/><path d="M488 457.33v144.8" stroke="#3a414a" fill="none"/><path d="M488.48 457.35h-.96v-.52h.96z" stroke="#3a414a" stroke-width=".05" fill="#3a414a"/><path d="M488 616.88l-4.63-14.26h9.26z" stroke="#3a414a" fill="#3a414a"/><path d="M488 743v32.5a6 6 0 0 1-6 6H-24a6 6 0 0 1-6-6V299.83a6 6 0 0 1 6-6h160.67a6 6 0 0 1 6 6v13.38" stroke="#fcce14" stroke-width="3" fill="none"/><path d="M489.48 743.04h-2.96v-1.54h2.96z" stroke="#fcce14" stroke-width=".05" fill="#fcce14"/><path d="M142.67 328.98l-4.64-14.27h9.27z" stroke="#fcce14" stroke-width="3" fill="#fcce14"/><path d="M142.67 458.33V534a6 6 0 0 0 6 6h750.7" stroke="#fcce14" stroke-width="3" fill="none"/><path d="M144.14 458.37h-2.95v-1.54h2.94z" stroke="#fcce14" stroke-width=".05" fill="#fcce14"/><path d="M915.15 540l-14.27 4.63v-9.26z" stroke="#fcce14" stroke-width="3" fill="#fcce14"/><path d="M593.67 680H914a6 6 0 0 1 6 6v158a6 6 0 0 1-6 6H494a6 6 0 0 0-6 6v81.88" stroke="#fcce14" stroke-width="3" fill="none"/><path d="M593.7 681.48h-1.53v-2.96h1.54z" stroke="#fcce14" stroke-width=".05" fill="#fcce14"/><path d="M488 953.65l-4.63-14.27h9.26z" stroke="#fcce14" stroke-width="3" fill="#fcce14"/><path d="M488 1083v71a6 6 0 0 0 6 6h405.38" stroke="#fcce14" stroke-width="3" fill="none"/><path d="M489.48 1083.04h-2.96v-1.54h2.96z" stroke="#fcce14" stroke-width=".05" fill="#fcce14"/><path d="M915.15 1160l-14.27 4.63v-9.27z" stroke="#fcce14" stroke-width="3" fill="#fcce14"/><path d="M-500 486a6 6 0 0 1 6-6h182.67a6 6 0 0 1 6 6v148a6 6 0 0 1-6 6H-494a6 6 0 0 1-6-6z" stroke="#6db1ff" stroke-width="2" fill="#edf5ff"/><use xlink:href="#n" transform="matrix(1,0,0,1,-495,485) translate(0 34.71137152777778)"/><use xlink:href="#o" transform="matrix(1,0,0,1,-495,485) translate(22.22222222222222 34.71137152777778)"/><use xlink:href="#p" transform="matrix(1,0,0,1,-495,485) translate(0 66.97699652777777)"/><use xlink:href="#q" transform="matrix(1,0,0,1,-495,485) translate(34.42925347222222 66.97699652777777)"/><use xlink:href="#r" transform="matrix(1,0,0,1,-495,485) translate(67.89279513888889 66.97699652777777)"/><use xlink:href="#s" transform="matrix(1,0,0,1,-495,485) translate(0 99.24262152777777)"/><use xlink:href="#t" transform="matrix(1,0,0,1,-495,485) translate(34.74392361111111 99.24262152777777)"/><use xlink:href="#u" transform="matrix(1,0,0,1,-495,485) translate(49.58767361111111 99.24262152777777)"/><use xlink:href="#v" transform="matrix(1,0,0,1,-495,485) translate(0 131.50824652777777)"/><use xlink:href="#w" transform="matrix(1,0,0,1,-495,485) translate(40.625 131.50824652777777)"/><use xlink:href="#x" transform="matrix(1,0,0,1,-495,485) translate(100.42317708333334 131.50824652777777)"/><path d="M-402.67 478.5v-41.2a.13.13 0 0 0-.12-.13.13.13 0 0 1-.12-.13v-25.32" stroke="#1071e5" fill="none"/><path d="M-402.2 479h-.94v-.5h.95z" stroke="#1071e5" stroke-width=".05" fill="#1071e5"/><path d="M-402.92 396.95l4.64 14.27h-9.27z" stroke="#1071e5" fill="#1071e5"/><path d="M-180 83.03a6 6 0 0 1 6-6H8.67a6 6 0 0 1 6 6v153.94a6 6 0 0 1-6 6H-174a6 6 0 0 1-6-6z" stroke="#6db1ff" stroke-width="2" fill="#edf5ff"/><use xlink:href="#y" transform="matrix(1,0,0,1,-175,82.02473958333334) translate(0 21.83246527777778)"/><use xlink:href="#z" transform="matrix(1,0,0,1,-175,82.02473958333334) translate(0 54.09809027777778)"/><use xlink:href="#p" transform="matrix(1,0,0,1,-175,82.02473958333334) translate(0 86.36371527777777)"/><use xlink:href="#q" transform="matrix(1,0,0,1,-175,82.02473958333334) translate(34.42925347222222 86.36371527777777)"/><use xlink:href="#r" transform="matrix(1,0,0,1,-175,82.02473958333334) translate(67.89279513888889 86.36371527777777)"/><use xlink:href="#s" transform="matrix(1,0,0,1,-175,82.02473958333334) translate(0 118.62934027777777)"/><use xlink:href="#A" transform="matrix(1,0,0,1,-175,82.02473958333334) translate(34.74392361111111 118.62934027777777)"/><use xlink:href="#u" transform="matrix(1,0,0,1,-175,82.02473958333334) translate(55.034722222222214 118.62934027777777)"/><use xlink:href="#v" transform="matrix(1,0,0,1,-175,82.02473958333334) translate(0 150.89496527777777)"/><use xlink:href="#w" transform="matrix(1,0,0,1,-175,82.02473958333334) translate(40.625 150.89496527777777)"/><use xlink:href="#x" transform="matrix(1,0,0,1,-175,82.02473958333334) translate(100.42317708333334 150.89496527777777)"/><path d="M-82.67 244.47v75a.2.2 0 0 0 .2.18.2.2 0 0 1 .2.2l-.02 59.1" stroke="#1071e5" fill="none"/><path d="M-82.2 244.5h-.94v-.53h.95z" stroke="#1071e5" stroke-width=".05" fill="#1071e5"/><path d="M-82.28 393.7l-4.64-14.25h9.27z" stroke="#1071e5" fill="#1071e5"/><path d="M200 86a6 6 0 0 1 6-6h182.67a6 6 0 0 1 6 6v148a6 6 0 0 1-6 6H206a6 6 0 0 1-6-6z" stroke="#6db1ff" stroke-width="2" fill="#edf5ff"/><use xlink:href="#B" transform="matrix(1,0,0,1,205.00000000000003,85) translate(0 34.71137152777778)"/><use xlink:href="#C" transform="matrix(1,0,0,1,205.00000000000003,85) translate(25.87890625 34.71137152777778)"/><use xlink:href="#p" transform="matrix(1,0,0,1,205.00000000000003,85) translate(0 66.97699652777777)"/><use xlink:href="#D" transform="matrix(1,0,0,1,205.00000000000003,85) translate(34.42925347222222 66.97699652777777)"/><use xlink:href="#r" transform="matrix(1,0,0,1,205.00000000000003,85) translate(68.359375 66.97699652777777)"/><use xlink:href="#s" transform="matrix(1,0,0,1,205.00000000000003,85) translate(0 99.24262152777777)"/><use xlink:href="#A" transform="matrix(1,0,0,1,205.00000000000003,85) translate(34.74392361111111 99.24262152777777)"/><use xlink:href="#u" transform="matrix(1,0,0,1,205.00000000000003,85) translate(55.034722222222214 99.24262152777777)"/><use xlink:href="#v" transform="matrix(1,0,0,1,205.00000000000003,85) translate(0 131.50824652777777)"/><use xlink:href="#w" transform="matrix(1,0,0,1,205.00000000000003,85) translate(40.625 131.50824652777777)"/><use xlink:href="#x" transform="matrix(1,0,0,1,205.00000000000003,85) translate(100.42317708333334 131.50824652777777)"/><path d="M297.33 241.5v76.6a.07.07 0 0 0 .07.07.07.07 0 0 1 .06.06v60.72" stroke="#1071e5" fill="none"/><path d="M297.8 241.5h-.94v-.5h.95z" stroke="#1071e5" stroke-width=".05" fill="#1071e5"/><path d="M297.46 393.7l-4.63-14.25h9.27z" stroke="#1071e5" fill="#1071e5"/><path d="M89.33 586a6 6 0 0 1 6-6h193.34a6 6 0 0 1 6 6v150.98a6 6 0 0 1-6 6H95.33a6 6 0 0 1-6-6z" stroke="#6db1ff" stroke-width="2" fill="#edf5ff"/><g><use xlink:href="#E" transform="matrix(1,0,0,1,94.33333333333337,585) translate(0 36.17035590277778)"/><use xlink:href="#F" transform="matrix(1,0,0,1,94.33333333333337,585) translate(25.998263888888893 36.17035590277778)"/><use xlink:href="#p" transform="matrix(1,0,0,1,94.33333333333337,585) translate(0 68.43598090277777)"/><use xlink:href="#G" transform="matrix(1,0,0,1,94.33333333333337,585) translate(34.42925347222222 68.43598090277777)"/><use xlink:href="#r" transform="matrix(1,0,0,1,94.33333333333337,585) translate(68.24001736111111 68.43598090277777)"/><use xlink:href="#s" transform="matrix(1,0,0,1,94.33333333333337,585) translate(0 100.70160590277777)"/><use xlink:href="#H" transform="matrix(1,0,0,1,94.33333333333337,585) translate(34.74392361111111 100.70160590277777)"/><use xlink:href="#u" transform="matrix(1,0,0,1,94.33333333333337,585) translate(54.351128472222214 100.70160590277777)"/><use xlink:href="#v" transform="matrix(1,0,0,1,94.33333333333337,585) translate(0 132.96723090277777)"/><use xlink:href="#I" transform="matrix(1,0,0,1,94.33333333333337,585) translate(40.625 132.96723090277777)"/><use xlink:href="#x" transform="matrix(1,0,0,1,94.33333333333337,585) translate(146.875 132.96723090277777)"/></g><path d="M192 578.5v-18.8a.2.2 0 0 1 .2-.2.2.2 0 0 0 .22-.2v-2.92" stroke="#1071e5" fill="none"/><path d="M192.47 579h-.94v-.5h.94z" stroke="#1071e5" stroke-width=".05" fill="#1071e5"/><path d="M192.42 541.62l4.64 14.26h-9.27z" stroke="#1071e5" fill="#1071e5"/><path d="M0 851.54a6 6 0 0 1 6-6h188a6 6 0 0 1 6 6v153.95a6 6 0 0 1-6 6H6a6 6 0 0 1-6-6z" stroke="#6db1ff" stroke-width="2" fill="#edf5ff"/><g><use xlink:href="#J" transform="matrix(1,0,0,1,5,850.537109375) translate(0 21.83246527777778)"/><use xlink:href="#K" transform="matrix(1,0,0,1,5,850.537109375) translate(22.146267361111107 21.83246527777778)"/><use xlink:href="#p" transform="matrix(1,0,0,1,5,850.537109375) translate(0 54.09809027777778)"/><use xlink:href="#L" transform="matrix(1,0,0,1,5,850.537109375) translate(34.42925347222222 54.09809027777778)"/><use xlink:href="#r" transform="matrix(1,0,0,1,5,850.537109375) translate(68.12065972222223 54.09809027777778)"/><use xlink:href="#s" transform="matrix(1,0,0,1,5,850.537109375) translate(0 86.36371527777777)"/><use xlink:href="#t" transform="matrix(1,0,0,1,5,850.537109375) translate(34.74392361111111 86.36371527777777)"/><use xlink:href="#u" transform="matrix(1,0,0,1,5,850.537109375) translate(49.58767361111111 86.36371527777777)"/><use xlink:href="#v" transform="matrix(1,0,0,1,5,850.537109375) translate(0 118.62934027777777)"/><use xlink:href="#M" transform="matrix(1,0,0,1,5,850.537109375) translate(40.625 118.62934027777777)"/><use xlink:href="#x" transform="matrix(1,0,0,1,5,850.537109375) translate(0 150.89496527777777)"/></g><path d="M100 844.04V813.2a.17.17 0 0 0-.17-.18.17.17 0 0 1-.17-.17v-14.97" stroke="#1071e5" fill="none"/><path d="M100.47 844.54h-.94v-.52h.94z" stroke="#1071e5" stroke-width=".05" fill="#1071e5"/><path d="M99.66 783.12l4.64 14.26h-9.28z" stroke="#1071e5" fill="#1071e5"/><path d="M740 346a6 6 0 0 1 6-6h211.26a6 6 0 0 1 6 6v153.95a6 6 0 0 1-6 6H746a6 6 0 0 1-6-6z" stroke="#6db1ff" stroke-width="2" fill="#edf5ff"/><g><use xlink:href="#N" transform="matrix(1,0,0,1,745,345) translate(0 37.67621527777778)"/><use xlink:href="#O" transform="matrix(1,0,0,1,745,345) translate(26.280381944444443 37.67621527777778)"/><use xlink:href="#p" transform="matrix(1,0,0,1,745,345) translate(0 69.94184027777777)"/><use xlink:href="#L" transform="matrix(1,0,0,1,745,345) translate(34.42925347222222 69.94184027777777)"/><use xlink:href="#r" transform="matrix(1,0,0,1,745,345) translate(68.12065972222223 69.94184027777777)"/><use xlink:href="#s" transform="matrix(1,0,0,1,745,345) translate(0 102.20746527777777)"/><use xlink:href="#A" transform="matrix(1,0,0,1,745,345) translate(34.74392361111111 102.20746527777777)"/><use xlink:href="#u" transform="matrix(1,0,0,1,745,345) translate(55.034722222222214 102.20746527777777)"/><use xlink:href="#v" transform="matrix(1,0,0,1,745,345) translate(0 134.47309027777777)"/><use xlink:href="#w" transform="matrix(1,0,0,1,745,345) translate(40.625 134.47309027777777)"/><use xlink:href="#x" transform="matrix(1,0,0,1,745,345) translate(100.42317708333334 134.47309027777777)"/></g><path d="M738.5 422.98h-119a6 6 0 0 0-6 6v72.53a6 6 0 0 1-6 6H504.38" stroke="#1071e5" fill="none"/><path d="M739 423.45h-.5v-.95h.5z" stroke="#1071e5" stroke-width=".05" fill="#1071e5"/><path d="M489.62 507.5l14.26-4.62v9.27z" stroke="#1071e5" fill="#1071e5"/><path d="M980 686a6 6 0 0 1 6-6h182.67a6 6 0 0 1 6 6v148a6 6 0 0 1-6 6H986a6 6 0 0 1-6-6z" stroke="#6db1ff" stroke-width="2" fill="#edf5ff"/><g><use xlink:href="#P" transform="matrix(1,0,0,1,985,685) translate(0 34.71137152777778)"/><use xlink:href="#Q" transform="matrix(1,0,0,1,985,685) translate(25.694444444444443 34.71137152777778)"/><use xlink:href="#p" transform="matrix(1,0,0,1,985,685) translate(0 66.97699652777777)"/><use xlink:href="#L" transform="matrix(1,0,0,1,985,685) translate(34.42925347222222 66.97699652777777)"/><use xlink:href="#r" transform="matrix(1,0,0,1,985,685) translate(68.12065972222223 66.97699652777777)"/><use xlink:href="#s" transform="matrix(1,0,0,1,985,685) translate(0 99.24262152777777)"/><use xlink:href="#t" transform="matrix(1,0,0,1,985,685) translate(34.74392361111111 99.24262152777777)"/><use xlink:href="#u" transform="matrix(1,0,0,1,985,685) translate(49.58767361111111 99.24262152777777)"/><use xlink:href="#v" transform="matrix(1,0,0,1,985,685) translate(0 131.50824652777777)"/><use xlink:href="#R" transform="matrix(1,0,0,1,985,685) translate(40.625 131.50824652777777)"/><use xlink:href="#x" transform="matrix(1,0,0,1,985,685) translate(123.2421875 131.50824652777777)"/></g><path d="M978.5 760h-28.95a.05.05 0 0 0-.05.05.05.05 0 0 1-.05.06h-13.07" stroke="#1071e5" fill="none"/><path d="M979 760.48h-.5v-.96h.5z" stroke="#1071e5" stroke-width=".05" fill="#1071e5"/><path d="M921.62 760.1l14.26-4.63v9.27z" stroke="#1071e5" fill="#1071e5"/><path d="M720 946a6 6 0 0 1 6-6h182.67a6 6 0 0 1 6 6v148a6 6 0 0 1-6 6H726a6 6 0 0 1-6-6z" stroke="#6db1ff" stroke-width="2" fill="#edf5ff"/><g><use xlink:href="#S" transform="matrix(1,0,0,1,725,945) translate(0 34.71137152777778)"/><use xlink:href="#Q" transform="matrix(1,0,0,1,725,945) translate(25.770399305555557 34.71137152777778)"/><use xlink:href="#p" transform="matrix(1,0,0,1,725,945) translate(0 66.97699652777777)"/><use xlink:href="#q" transform="matrix(1,0,0,1,725,945) translate(34.42925347222222 66.97699652777777)"/><use xlink:href="#r" transform="matrix(1,0,0,1,725,945) translate(67.89279513888889 66.97699652777777)"/><use xlink:href="#s" transform="matrix(1,0,0,1,725,945) translate(0 99.24262152777777)"/><use xlink:href="#t" transform="matrix(1,0,0,1,725,945) translate(34.74392361111111 99.24262152777777)"/><use xlink:href="#u" transform="matrix(1,0,0,1,725,945) translate(49.58767361111111 99.24262152777777)"/><use xlink:href="#v" transform="matrix(1,0,0,1,725,945) translate(0 131.50824652777777)"/><use xlink:href="#R" transform="matrix(1,0,0,1,725,945) translate(40.625 131.50824652777777)"/><use xlink:href="#x" transform="matrix(1,0,0,1,725,945) translate(123.2421875 131.50824652777777)"/></g><path d="M817.33 1101.5v28.95a.05.05 0 0 0 .05.05.05.05 0 0 1 .05.05v13.07" stroke="#1071e5" fill="none"/><path d="M817.8 1101.5h-.94v-.5h.95z" stroke="#1071e5" stroke-width=".05" fill="#1071e5"/><path d="M817.43 1158.38l-4.63-14.26h9.27z" stroke="#1071e5" fill="#1071e5"/><defs><path d="M747-550l-165-465-150 465h315zM392-430l-96 289c-7 21 1 36 24 45s62 17 117 23V0H0v-73c73-17 133-13 151-68l349-1066c60-51 139-84 222-110l420 1176c16 49 64 60 124 68V0H769v-73c52-3 87-10 105-20s24-26 17-48L789-430H392" id="T"/><path d="M729-120c148 2 174-101 217-210l73 26c-10 100-22 215-41 304H43v-73c45-9 80-20 103-31s34-21 34-30v-991c0-8-10-18-32-30s-57-23-105-32v-73h525v73c-45 9-80 20-103 31s-35 22-35 31v931c9 77 99 74 186 74h113" id="U"/><path d="M63 0v-73c45-9 80-20 103-31s34-21 34-30v-991c0-8-10-18-32-30s-57-23-105-32v-73h525v73c-45 9-80 20-103 31s-35 22-35 31v991c0 8 11 18 33 30s57 22 105 31V0H63" id="V"/><path d="M200-1152c-37-23-85-34-137-35v-73h346c47 5 54 46 71 84l368 835c133-294 261-590 397-881 10-22 19-38 49-38h339v73c-46 1-90 13-128 28l10 1025c0 8 13 18 37 30s60 22 108 31V0h-522v-73c45-9 82-20 108-31s39-21 39-30l-8-813L853 0h-94L343-945l-8 811c0 8 11 18 33 30s57 22 105 31V0H53v-73c46-9 80-20 103-31s34-21 34-30" id="W"/><path d="M733-120c149 2 180-100 223-210l73 26c-9 101-22 215-41 304H43v-73c45-9 80-20 103-31s34-21 34-30v-991c0-8-10-18-32-30s-57-23-105-32v-73h881l40 32c-8 91-21 200-41 278h-75c-3-62-12-110-25-142s-32-48-57-48H430v405h398l33 35c-26 43-55 94-92 126-60-70-209-53-339-55v445c3 49 47 53 98 60 50 7 142 4 205 4" id="X"/><path d="M43 0v-73c49-6 84-15 105-28s32-24 32-33v-980c-43-41-89-65-137-73v-73c101 1 207-4 303 2 36 15 48 43 72 76l612 848v-791c-20-45-79-50-137-62v-73h425v73c-48 7-83 16-105 29s-33 24-33 33V30c-111-7-195-43-239-104L330-920v786c21 43 79 50 138 61V0H43" id="Y"/><path d="M1151-1228c-5 98-22 200-38 288h-75c-17-67-17-142-52-186-8-10-19-14-33-14H706v995c11 31 44 40 80 53 20 7 46 13 77 19V0H300v-73c62-13 113-25 149-57 5-5 7-10 7-15v-995H202c-54 11-63 62-87 111-13 26-24 59-39 98L3-958c8-100 24-211 40-302h1070" id="Z"/><path d="M548-164c182 81 360-23 471-115 19 17 36 48 52 68C944-89 816 30 586 30c-256 0-407-160-486-356-64-157-57-393 4-550 101-260 325-453 694-406 98 12 191 44 254 92-9 71-56 133-86 187-7 12-14 21-19 26l-65-14c-57-98-128-167-260-167-252 0-314 258-314 535 0 231 84 390 240 459" id="aa"/><path d="M506-1360c-25-11-52-46-68-67l365-340c59 33 128 71 178 112l9 52zM764-137c215-118 232-634 88-861-52-83-127-162-248-162-247 0-296 255-296 519 0 222 74 401 204 495 73 53 173 53 252 9zm295-954c108 134 178 390 117 620C1115-240 973-70 755 5 628 49 478 35 371-23 179-126 55-328 55-612c0-306 150-515 359-623 138-71 341-75 475-1 67 36 123 86 170 145" id="ab"/><g id="a"><use transform="matrix(0.010850694444444444,0,0,0.010850694444444444,0,0)" xlink:href="#T"/><use transform="matrix(0.010850694444444444,0,0,0.010850694444444444,13.96484375,0)" xlink:href="#U"/><use transform="matrix(0.010850694444444444,0,0,0.010850694444444444,25.28211805555556,0)" xlink:href="#V"/><use transform="matrix(0.010850694444444444,0,0,0.010850694444444444,32.552083333333336,0)" xlink:href="#W"/><use transform="matrix(0.010850694444444444,0,0,0.010850694444444444,51.3671875,0)" xlink:href="#X"/><use transform="matrix(0.010850694444444444,0,0,0.010850694444444444,63.04253472222222,0)" xlink:href="#Y"/><use transform="matrix(0.010850694444444444,0,0,0.010850694444444444,77.78862847222223,0)" xlink:href="#Z"/><use transform="matrix(0.010850694444444444,0,0,0.010850694444444444,90.67925347222221,0)" xlink:href="#T"/><use transform="matrix(0.010850694444444444,0,0,0.010850694444444444,104.64409722222224,0)" xlink:href="#aa"/><use transform="matrix(0.010850694444444444,0,0,0.010850694444444444,117.04644097222224,0)" xlink:href="#V"/><use transform="matrix(0.010850694444444444,0,0,0.010850694444444444,124.31640625,0)" xlink:href="#ab"/><use transform="matrix(0.010850694444444444,0,0,0.010850694444444444,138.14019097222223,0)" xlink:href="#Y"/></g><path d="M0-1242c82-11 176-28 264-28 110 0 129 88 178 160 89 130 167 285 238 431l234-442c10-17 6-31-10-41s-50-18-101-25v-73h418v73c-74 17-122 18-148 66L752-523v378c11 31 44 40 80 53 20 7 47 13 78 19V0H345v-73c61-13 113-25 149-57 6-5 8-10 8-15v-384c-96-207-216-417-341-592-29-41-83-48-157-48" id="ac"/><use transform="matrix(0.010850694444444444,0,0,0.010850694444444444,0,0)" xlink:href="#ac" id="b"/><path d="M835-895c0-223-165-306-405-287v1048c11 29 46 34 83 44 22 6 50 11 85 17V0H43v-73c45-9 80-20 103-31s34-21 34-30v-1024c-47 6-93 13-137 20l-13-92c266-56 702-113 915 31 82 54 142 136 142 263 0 233-144 351-331 404-86 24-194 10-261-18l-31-105c48 22 79 30 139 30 154 0 232-108 232-270" id="ad"/><path d="M575-586c-52 3-101 0-145-10v462c0 8 10 18 32 30s57 22 106 31V0H43v-73c45-9 80-20 103-31s34-21 34-30v-1023c-46 7-93 12-137 19l-13-92c295-67 842-131 974 124 18 37 28 76 28 119 0 205-123 310-279 367l315 436c31 48 78 71 161 59l15 73c-85 26-183 60-284 66-41 2-83-27-98-55zm205-370c0-187-150-240-350-226v476c33 6 54 7 89 7 174 2 261-90 261-257" id="ae"/><path d="M644-1140c-115-71-322-32-312 118 8 121 112 163 201 211 153 82 329 146 407 303 48 97 22 239-26 316C821-43 638 56 388 23 288 10 187-22 116-68c-27-84-10-232 8-316l71 5c44 110 112 202 218 247 31 13 64 19 98 19 132 0 232-64 232-196 0-191-180-234-315-303-146-75-316-135-316-348 0-157 120-245 251-296 162-62 445-37 543 58 4 63-40 124-67 170-6 11-14 18-19 23l-66-6c-26-57-62-99-110-129" id="af"/><path d="M743-115c200-5 257-179 257-383v-627c0-8-10-18-32-30s-57-23-105-32v-73h450v73c-45 9-80 20-103 31s-35 22-35 31v601c-2 264-110 436-295 516-60 25-127 38-199 38-309 0-501-160-501-474v-681c0-8-10-18-32-30s-57-23-105-32v-73h525v73c-45 9-80 20-103 31s-35 22-35 31v616c0 238 75 400 313 394" id="ag"/><path d="M143-1276c45 10 85 16 138 16h720l33 50L366-130h456c66-11 77-78 102-138 12-30 22-66 35-107l85 22c-6 109-8 243-12 353H88L52-53l673-1077H334c-61 17-86 81-112 139-13 28-22 60-29 95l-87-19" id="ah"/><g id="c"><use transform="matrix(0.010850694444444444,0,0,0.010850694444444444,0,0)" xlink:href="#ad"/><use transform="matrix(0.010850694444444444,0,0,0.010850694444444444,12.59765625,0)" xlink:href="#ae"/><use transform="matrix(0.010850694444444444,0,0,0.010850694444444444,26.041666666666664,0)" xlink:href="#X"/><use transform="matrix(0.010850694444444444,0,0,0.010850694444444444,37.717013888888886,0)" xlink:href="#af"/><use transform="matrix(0.010850694444444444,0,0,0.010850694444444444,49.11024305555556,0)" xlink:href="#ag"/><use transform="matrix(0.010850694444444444,0,0,0.010850694444444444,63.96484375,0)" xlink:href="#ae"/><use transform="matrix(0.010850694444444444,0,0,0.010850694444444444,77.40885416666666,0)" xlink:href="#V"/><use transform="matrix(0.010850694444444444,0,0,0.010850694444444444,84.67881944444443,0)" xlink:href="#ah"/><use transform="matrix(0.010850694444444444,0,0,0.010850694444444444,96.78819444444441,0)" xlink:href="#T"/><use transform="matrix(0.010850694444444444,0,0,0.010850694444444444,110.75303819444441,0)" xlink:href="#aa"/><use transform="matrix(0.010850694444444444,0,0,0.010850694444444444,123.15538194444441,0)" xlink:href="#V"/><use transform="matrix(0.010850694444444444,0,0,0.010850694444444444,130.4253472222222,0)" xlink:href="#ab"/><use transform="matrix(0.010850694444444444,0,0,0.010850694444444444,144.24913194444443,0)" xlink:href="#Y"/></g><g id="d"><use transform="matrix(0.010850694444444444,0,0,0.010850694444444444,0,0)" xlink:href="#ae"/><use transform="matrix(0.010850694444444444,0,0,0.010850694444444444,13.444010416666666,0)" xlink:href="#X"/><use transform="matrix(0.010850694444444444,0,0,0.010850694444444444,25.11935763888889,0)" xlink:href="#aa"/><use transform="matrix(0.010850694444444444,0,0,0.010850694444444444,37.521701388888886,0)" xlink:href="#ag"/><use transform="matrix(0.010850694444444444,0,0,0.010850694444444444,52.37630208333333,0)" xlink:href="#ad"/><use transform="matrix(0.010850694444444444,0,0,0.010850694444444444,64.97395833333333,0)" xlink:href="#X"/><use transform="matrix(0.010850694444444444,0,0,0.010850694444444444,76.64930555555554,0)" xlink:href="#ae"/><use transform="matrix(0.010850694444444444,0,0,0.010850694444444444,90.09331597222221,0)" xlink:href="#T"/><use transform="matrix(0.010850694444444444,0,0,0.010850694444444444,104.05815972222221,0)" xlink:href="#aa"/><use transform="matrix(0.010850694444444444,0,0,0.010850694444444444,116.46050347222221,0)" xlink:href="#V"/><use transform="matrix(0.010850694444444444,0,0,0.010850694444444444,123.73046875,0)" xlink:href="#ab"/><use transform="matrix(0.010850694444444444,0,0,0.010850694444444444,137.5542534722222,0)" xlink:href="#Y"/></g><path d="M578-1290c408 0 643 208 643 614 0 370-167 586-463 660C711-4 664 0 619 0H43v-73c45-9 80-20 103-31s34-21 34-30v-1023l-137 19-13-92c159-36 354-60 548-60zm375 653c-1-354-149-573-523-545v1015c7 64 80 60 152 60 213 0 307-172 354-361 12-50 17-106 17-169" id="ai"/><g id="e"><use transform="matrix(0.010850694444444444,0,0,0.010850694444444444,0,0)" xlink:href="#ai"/><use transform="matrix(0.010850694444444444,0,0,0.010850694444444444,14.149305555555555,0)" xlink:href="#X"/></g><path d="M764-137c215-118 232-634 88-861-52-83-127-162-248-162-247 0-296 255-296 519 0 222 74 401 204 495 73 53 173 53 252 9zm295-954c108 134 178 390 117 620C1115-240 973-70 755 5 628 49 478 35 371-23 179-126 55-328 55-612c0-306 150-515 359-623 138-71 341-75 475-1 67 36 123 86 170 145" id="aj"/><g id="f"><use transform="matrix(0.010850694444444444,0,0,0.010850694444444444,0,0)" xlink:href="#aa"/><use transform="matrix(0.010850694444444444,0,0,0.010850694444444444,12.40234375,0)" xlink:href="#T"/><use transform="matrix(0.010850694444444444,0,0,0.010850694444444444,26.3671875,0)" xlink:href="#U"/><use transform="matrix(0.010850694444444444,0,0,0.010850694444444444,37.68446180555556,0)" xlink:href="#aj"/><use transform="matrix(0.010850694444444444,0,0,0.010850694444444444,51.50824652777778,0)" xlink:href="#ae"/></g><g id="g"><use transform="matrix(0.010850694444444444,0,0,0.010850694444444444,0,0)" xlink:href="#aa"/><use transform="matrix(0.010850694444444444,0,0,0.010850694444444444,12.40234375,0)" xlink:href="#T"/><use transform="matrix(0.010850694444444444,0,0,0.010850694444444444,26.3671875,0)" xlink:href="#U"/><use transform="matrix(0.010850694444444444,0,0,0.010850694444444444,37.68446180555556,0)" xlink:href="#X"/><use transform="matrix(0.010850694444444444,0,0,0.010850694444444444,49.35980902777778,0)" xlink:href="#Y"/><use transform="matrix(0.010850694444444444,0,0,0.010850694444444444,64.10590277777777,0)" xlink:href="#Z"/><use transform="matrix(0.010850694444444444,0,0,0.010850694444444444,76.99652777777777,0)" xlink:href="#T"/><use transform="matrix(0.010850694444444444,0,0,0.010850694444444444,90.96137152777777,0)" xlink:href="#W"/><use transform="matrix(0.010850694444444444,0,0,0.010850694444444444,109.77647569444441,0)" xlink:href="#V"/><use transform="matrix(0.010850694444444444,0,0,0.010850694444444444,117.0464409722222,0)" xlink:href="#X"/><use transform="matrix(0.010850694444444444,0,0,0.010850694444444444,128.72178819444443,0)" xlink:href="#Y"/><use transform="matrix(0.010850694444444444,0,0,0.010850694444444444,143.46788194444443,0)" xlink:href="#Z"/><use transform="matrix(0.010850694444444444,0,0,0.010850694444444444,156.35850694444443,0)" xlink:href="#aj"/></g><g id="h"><use transform="matrix(0.010850694444444444,0,0,0.010850694444444444,0,0)" xlink:href="#ad"/><use transform="matrix(0.010850694444444444,0,0,0.010850694444444444,12.59765625,0)" xlink:href="#ae"/><use transform="matrix(0.010850694444444444,0,0,0.010850694444444444,26.041666666666664,0)" xlink:href="#V"/><use transform="matrix(0.010850694444444444,0,0,0.010850694444444444,33.31163194444444,0)" xlink:href="#Y"/><use transform="matrix(0.010850694444444444,0,0,0.010850694444444444,48.05772569444444,0)" xlink:href="#aa"/><use transform="matrix(0.010850694444444444,0,0,0.010850694444444444,60.46006944444444,0)" xlink:href="#V"/><use transform="matrix(0.010850694444444444,0,0,0.010850694444444444,67.73003472222221,0)" xlink:href="#ad"/><use transform="matrix(0.010850694444444444,0,0,0.010850694444444444,80.32769097222221,0)" xlink:href="#T"/><use transform="matrix(0.010850694444444444,0,0,0.010850694444444444,94.29253472222221,0)" xlink:href="#U"/></g><g id="i"><use transform="matrix(0.010850694444444444,0,0,0.010850694444444444,0,0)" xlink:href="#af"/><use transform="matrix(0.010850694444444444,0,0,0.010850694444444444,11.393229166666666,0)" xlink:href="#X"/><use transform="matrix(0.010850694444444444,0,0,0.010850694444444444,23.06857638888889,0)" xlink:href="#ad"/><use transform="matrix(0.010850694444444444,0,0,0.010850694444444444,35.666232638888886,0)" xlink:href="#T"/><use transform="matrix(0.010850694444444444,0,0,0.010850694444444444,49.631076388888886,0)" xlink:href="#ae"/><use transform="matrix(0.010850694444444444,0,0,0.010850694444444444,63.07508680555555,0)" xlink:href="#T"/><use transform="matrix(0.010850694444444444,0,0,0.010850694444444444,77.03993055555554,0)" xlink:href="#aa"/><use transform="matrix(0.010850694444444444,0,0,0.010850694444444444,89.44227430555556,0)" xlink:href="#V"/><use transform="matrix(0.010850694444444444,0,0,0.010850694444444444,96.71223958333331,0)" xlink:href="#ab"/><use transform="matrix(0.010850694444444444,0,0,0.010850694444444444,110.53602430555556,0)" xlink:href="#Y"/></g><path d="M739-574c-55-66-187-55-309-55v495c14 28 49 33 86 44 21 7 49 11 82 17V0H43v-73c45-9 80-20 103-31s34-21 34-30v-991c0-8-10-18-32-30s-57-23-105-32v-73h891l38 32c-6 92-19 200-39 278h-77c-2-62-10-110-24-142s-33-48-58-48H430v405h367l36 35c-25 46-57 93-94 126" id="ak"/><path d="M43 0v-73c45-9 80-20 103-31s34-21 34-30v-991c0-8-10-18-32-30s-57-23-105-32v-73h525v73c-45 9-80 20-103 31s-35 22-35 31v405h520v-405c0-8-10-18-32-30s-57-23-105-32v-73h525v73c-45 9-80 20-103 31s-35 22-35 31v991c0 8 11 18 33 30s57 22 105 31V0H813v-73c45-9 80-20 103-31s34-21 34-30v-466H430v466c0 8 10 18 32 30s57 22 106 31V0H43" id="al"/><g id="j"><use transform="matrix(0.010850694444444444,0,0,0.010850694444444444,0,0)" xlink:href="#ak"/><use transform="matrix(0.010850694444444444,0,0,0.010850694444444444,11.273871527777777,0)" xlink:href="#U"/><use transform="matrix(0.010850694444444444,0,0,0.010850694444444444,22.591145833333332,0)" xlink:href="#T"/><use transform="matrix(0.010850694444444444,0,0,0.010850694444444444,36.55598958333333,0)" xlink:href="#af"/><use transform="matrix(0.010850694444444444,0,0,0.010850694444444444,47.949218749999986,0)" xlink:href="#al"/></g><g id="k"><use transform="matrix(0.010850694444444444,0,0,0.010850694444444444,0,0)" xlink:href="#aa"/><use transform="matrix(0.010850694444444444,0,0,0.010850694444444444,12.40234375,0)" xlink:href="#aj"/><use transform="matrix(0.010850694444444444,0,0,0.010850694444444444,26.22612847222222,0)" xlink:href="#Y"/><use transform="matrix(0.010850694444444444,0,0,0.010850694444444444,40.97222222222222,0)" xlink:href="#ai"/><use transform="matrix(0.010850694444444444,0,0,0.010850694444444444,55.12152777777778,0)" xlink:href="#X"/><use transform="matrix(0.010850694444444444,0,0,0.010850694444444444,66.796875,0)" xlink:href="#Y"/><use transform="matrix(0.010850694444444444,0,0,0.010850694444444444,81.54296875,0)" xlink:href="#af"/><use transform="matrix(0.010850694444444444,0,0,0.010850694444444444,92.93619791666666,0)" xlink:href="#T"/><use transform="matrix(0.010850694444444444,0,0,0.010850694444444444,106.90104166666666,0)" xlink:href="#aa"/><use transform="matrix(0.010850694444444444,0,0,0.010850694444444444,119.30338541666666,0)" xlink:href="#V"/><use transform="matrix(0.010850694444444444,0,0,0.010850694444444444,126.57335069444444,0)" xlink:href="#ab"/><use transform="matrix(0.010850694444444444,0,0,0.010850694444444444,140.39713541666666,0)" xlink:href="#Y"/></g><g id="l"><use transform="matrix(0.010850694444444444,0,0,0.010850694444444444,0,0)" xlink:href="#ai"/><use transform="matrix(0.010850694444444444,0,0,0.010850694444444444,14.149305555555555,0)" xlink:href="#X"/><use transform="matrix(0.010850694444444444,0,0,0.010850694444444444,25.82465277777778,0)" xlink:href="#U"/></g><g id="m"><use transform="matrix(0.010850694444444444,0,0,0.010850694444444444,0,0)" xlink:href="#ad"/><use transform="matrix(0.010850694444444444,0,0,0.010850694444444444,12.59765625,0)" xlink:href="#ae"/><use transform="matrix(0.010850694444444444,0,0,0.010850694444444444,26.041666666666664,0)" xlink:href="#aj"/><use transform="matrix(0.010850694444444444,0,0,0.010850694444444444,39.865451388888886,0)" xlink:href="#ai"/><use transform="matrix(0.010850694444444444,0,0,0.010850694444444444,54.01475694444444,0)" xlink:href="#ag"/><use transform="matrix(0.010850694444444444,0,0,0.010850694444444444,68.86935763888889,0)" xlink:href="#aa"/><use transform="matrix(0.010850694444444444,0,0,0.010850694444444444,81.27170138888889,0)" xlink:href="#Z"/><use transform="matrix(0.010850694444444444,0,0,0.010850694444444444,94.16232638888889,0)" xlink:href="#aj"/></g><path fill="#1071e5" d="M749-1490V0H444v-1221h-10L93-980v-279l329-231h327" id="am"/><path fill="#1071e5" d="M342 19c-98 0-173-75-173-172s75-172 173-172 173 75 173 172S440 19 342 19" id="an"/><g id="n"><use transform="matrix(0.010850694444444444,0,0,0.010850694444444444,0,0)" xlink:href="#am"/><use transform="matrix(0.010850694444444444,0,0,0.010850694444444444,9.581163194444445,0)" xlink:href="#an"/></g><path fill="#1071e5" d="M135 0v-1490h468l242 684c30 94 76 293 111 455 34-161 80-360 110-455l238-684h470V0h-307c0-447-3-765 11-1227-122 503-246 788-395 1227H826C676-435 552-717 427-1215c15 453 11 775 11 1215H135" id="ao"/><path fill="#1071e5" d="M628 22C291 22 81-210 81-554c0-346 210-578 547-578 336 0 547 232 547 578 0 344-211 576-547 576zm0-236c160 0 242-146 242-341 0-197-82-341-242-341S387-753 387-555c0 195 81 341 241 341" id="ap"/><path fill="#1071e5" d="M572 22C302 22 117-98 78-306l279-48c29 105 101 156 224 156 114 0 185-48 185-115 0-118-228-130-337-155-215-49-322-150-322-317 0-215 187-347 470-347 265 0 424 116 466 298l-266 47c-24-76-87-130-196-130-98 0-174 46-174 113 0 56 38 95 144 117l201 40c216 44 320 143 320 302 0 220-207 367-500 367" id="aq"/><path fill="#1071e5" d="M683-1118v229H474v562c0 71 29 104 102 104 23 0 73-7 95-13l43 225C647 9 580 16 520 16 296 16 174-96 174-301v-588H20v-229h154v-266h300v266h209" id="ar"/><g id="o"><use transform="matrix(0.010850694444444444,0,0,0.010850694444444444,0,0)" xlink:href="#ao"/><use transform="matrix(0.010850694444444444,0,0,0.010850694444444444,20.703125,0)" xlink:href="#ap"/><use transform="matrix(0.010850694444444444,0,0,0.010850694444444444,34.33159722222222,0)" xlink:href="#aq"/><use transform="matrix(0.010850694444444444,0,0,0.010850694444444444,46.77734375,0)" xlink:href="#ar"/><use transform="matrix(0.010850694444444444,0,0,0.010850694444444444,54.69835069444445,0)" xlink:href="#ap"/></g><path fill="#1071e5" d="M75-1237v-253h1217v253H837V0H531v-1237H75" id="as"/><path fill="#1071e5" d="M197-230v-252h997v252H197zm0-479v-251h997v251H197" id="at"/><g id="p"><use transform="matrix(0.010850694444444444,0,0,0.010850694444444444,0,0)" xlink:href="#as"/><use transform="matrix(0.010850694444444444,0,0,0.010850694444444444,14.084201388888888,0)" xlink:href="#at"/></g><path fill="#1071e5" d="M124 0v-220l528-495c135-132 210-216 210-336 0-133-98-215-231-215-139 0-229 88-229 233H110c0-290 214-477 523-477 315 0 525 182 525 440 0 167-80 305-385 586L548-262v11h630V0H124" id="au"/><path fill="#1071e5" d="M664 20c-306 0-529-183-535-438h297c6 117 110 196 238 196 149 0 255-108 255-266 0-159-108-270-261-270-89 0-178 39-224 98l-274-48 72-782h901v252H485l-39 377h8c53-72 165-124 294-124 269 0 467 204 467 490 0 300-224 515-551 515" id="av"/><g id="q"><use transform="matrix(0.010850694444444444,0,0,0.010850694444444444,0,0)" xlink:href="#au"/><use transform="matrix(0.010850694444444444,0,0,0.010850694444444444,13.997395833333332,0)" xlink:href="#av"/></g><path fill="#1071e5" d="M471-789c-197 1-356-158-356-354 0-197 159-357 356-357 196 0 355 160 355 357 0 196-159 355-355 354zm0-201c84-1 153-69 153-153 0-85-69-153-153-153-85 0-153 68-153 153 0 84 68 152 153 153" id="aw"/><path fill="#1071e5" d="M786 20C389 20 94-260 94-744c0-487 299-766 692-766 339 0 597 194 641 529h-309c-28-162-156-258-326-258-233 0-388 179-388 495 0 323 157 493 387 493 170 0 298-97 328-259h309c-34 277-266 530-642 530" id="ax"/><g id="r"><use transform="matrix(0.010850694444444444,0,0,0.010850694444444444,0,0)" xlink:href="#aw"/><use transform="matrix(0.010850694444444444,0,0,0.010850694444444444,9.830729166666666,0)" xlink:href="#ax"/></g><path fill="#1071e5" d="M135 0v-1490h581c339 0 533 210 533 503 0 295-197 500-540 500H440V0H135zm305-733h220c186 0 274-104 274-254s-88-251-275-251H440v505" id="ay"/><g id="s"><use transform="matrix(0.010850694444444444,0,0,0.010850694444444444,0,0)" xlink:href="#ay"/><use transform="matrix(0.010850694444444444,0,0,0.010850694444444444,14.398871527777777,0)" xlink:href="#at"/></g><use transform="matrix(0.010850694444444444,0,0,0.010850694444444444,0,0)" xlink:href="#am" id="t"/><path fill="#1071e5" d="M754 19C571 19 479-89 437-179h-14V0H128v-1490h300v560h9c41-89 129-202 319-202 248 0 453 193 453 575 0 372-197 576-455 576zm-92-241c156 0 240-139 240-336 0-196-83-334-240-334-154 0-241 131-241 334 0 202 88 336 241 336" id="az"/><path fill="#1071e5" d="M440 22C227 22 68-92 68-313c0-250 202-322 422-343 195-21 271-24 271-105 0-95-63-149-175-149-116 0-187 57-211 129l-275-46c57-194 237-305 487-305 240 0 474 108 474 379V0H777v-155h-10C713-51 605 22 440 22zm85-211c140 0 238-93 238-211v-121c-37 26-156 42-222 51-111 16-185 59-185 149 0 87 70 132 169 132" id="aA"/><path fill="#1071e5" d="M128 0v-1118h290v195h12c54-169 184-238 367-200v268c-27-8-86-15-130-15-138 0-239 95-239 234V0H128" id="aB"/><g id="u"><use transform="matrix(0.010850694444444444,0,0,0.010850694444444444,0,0)" xlink:href="#az"/><use transform="matrix(0.010850694444444444,0,0,0.010850694444444444,14.225260416666666,0)" xlink:href="#aA"/><use transform="matrix(0.010850694444444444,0,0,0.010850694444444444,27.12673611111111,0)" xlink:href="#aB"/></g><path fill="#1071e5" d="M128 0v-1118h278l12 217c60-163 185-234 319-234 143 0 236 81 288 251 63-172 205-251 359-251 205 0 357 138 357 381V0h-301v-697c0-126-76-187-177-187-114 0-184 79-184 196V0H789v-705c0-109-72-179-174-179-106 0-187 74-187 208V0H128" id="aC"/><g id="v"><use transform="matrix(0.010850694444444444,0,0,0.010850694444444444,0,0)" xlink:href="#aC"/><use transform="matrix(0.010850694444444444,0,0,0.010850694444444444,20.279947916666664,0)" xlink:href="#at"/></g><path fill="#1071e5" d="M690 20C314 20 94-261 94-744c0-482 221-766 596-766 376 0 597 284 597 766 0 483-219 764-597 764zm0-253c184 0 286-184 286-511 0-328-102-514-286-514-183 0-285 187-285 514s101 511 285 511" id="aD"/><g id="w"><use transform="matrix(0.010850694444444444,0,0,0.010850694444444444,0,0)" xlink:href="#am"/><use transform="matrix(0.010850694444444444,0,0,0.010850694444444444,9.581163194444445,0)" xlink:href="#aD"/><use transform="matrix(0.010850694444444444,0,0,0.010850694444444444,24.56597222222222,0)" xlink:href="#aD"/><use transform="matrix(0.010850694444444444,0,0,0.010850694444444444,39.55078125,0)" xlink:href="#aD"/></g><path fill="#1071e5" d="M128 0v-1490h300v802h17l366-430h347L740-633 1179 0H826L514-456l-86 97V0H128" id="aE"/><path fill="#1071e5" d="M625 442c-280 0-454-114-503-274l258-72c28 63 97 128 243 128 153 0 246-69 246-216v-206h-23C805-108 717-16 536-16 284-16 81-191 81-561c0-378 208-571 456-571 188 0 280 113 321 202h13v-188h295V-9c0 303-226 451-541 451zm5-686c153 0 240-119 240-319 0-198-86-329-240-329-158 0-241 137-241 329 0 195 85 319 241 319" id="aF"/><path fill="#1071e5" d="M768-1560L288 224H28l480-1784h260" id="aG"/><path fill="#1071e5" d="M428-647V0H128v-1490h294v586c65-146 175-228 341-228 232 0 385 159 385 421V0H847v-659c0-139-76-222-202-222-128 0-217 86-217 234" id="aH"/><g id="x"><use transform="matrix(0.010850694444444444,0,0,0.010850694444444444,0,0)" xlink:href="#aE"/><use transform="matrix(0.010850694444444444,0,0,0.010850694444444444,12.391493055555555,0)" xlink:href="#aF"/><use transform="matrix(0.010850694444444444,0,0,0.010850694444444444,26.432291666666664,0)" xlink:href="#aG"/><use transform="matrix(0.010850694444444444,0,0,0.010850694444444444,35.05859375,0)" xlink:href="#aH"/></g><g id="y"><use transform="matrix(0.010850694444444444,0,0,0.010850694444444444,0,0)" xlink:href="#au"/><use transform="matrix(0.010850694444444444,0,0,0.010850694444444444,13.997395833333332,0)" xlink:href="#an"/></g><path fill="#1071e5" d="M818-733v240H140v-240h678" id="aI"/><path fill="#1071e5" d="M633 22C291 22 81-200 81-553c0-345 210-579 537-579 292 0 525 185 525 567v84H378c7 183 109 277 260 277 105 0 184-46 216-132l272 51C1071-99 893 22 633 22zM380-669h474c-15-146-94-237-233-237-143 0-229 99-241 237" id="aJ"/><path fill="#1071e5" d="M128 0v-1118h300V0H128zm150-1264c-91 0-165-68-165-154 0-85 74-154 165-154 90 0 165 69 165 154 0 86-75 154-165 154" id="aK"/><path fill="#1071e5" d="M628 22C291 22 81-210 81-554c0-346 210-578 547-578 336 0 547 232 547 578 0 344-211 576-547 576zm0-236c160 0 242-146 242-341 0-197-82-341-242-341S387-753 387-555c0 195 81 341 241 341zM519-1260l139-311h278l-207 311H519" id="aL"/><path fill="#1071e5" d="M428-647V0H128v-1118h283l4 231c63-156 176-245 348-245 232 0 384 159 384 421V0H847v-659c0-139-76-222-202-222-128 0-217 86-217 234" id="aM"/><g id="z"><use transform="matrix(0.010850694444444444,0,0,0.010850694444444444,0,0)" xlink:href="#ao"/><use transform="matrix(0.010850694444444444,0,0,0.010850694444444444,20.703125,0)" xlink:href="#ap"/><use transform="matrix(0.010850694444444444,0,0,0.010850694444444444,34.33159722222222,0)" xlink:href="#aq"/><use transform="matrix(0.010850694444444444,0,0,0.010850694444444444,46.77734375,0)" xlink:href="#ar"/><use transform="matrix(0.010850694444444444,0,0,0.010850694444444444,54.69835069444445,0)" xlink:href="#ap"/><use transform="matrix(0.010850694444444444,0,0,0.010850694444444444,68.32682291666667,0)" xlink:href="#aI"/><use transform="matrix(0.010850694444444444,0,0,0.010850694444444444,78.72178819444444,0)" xlink:href="#ay"/><use transform="matrix(0.010850694444444444,0,0,0.010850694444444444,93.12065972222221,0)" xlink:href="#aB"/><use transform="matrix(0.010850694444444444,0,0,0.010850694444444444,101.62760416666666,0)" xlink:href="#aJ"/><use transform="matrix(0.010850694444444444,0,0,0.010850694444444444,114.86545138888889,0)" xlink:href="#aq"/><use transform="matrix(0.010850694444444444,0,0,0.010850694444444444,127.31119791666666,0)" xlink:href="#aK"/><use transform="matrix(0.010850694444444444,0,0,0.010850694444444444,133.33333333333331,0)" xlink:href="#aL"/><use transform="matrix(0.010850694444444444,0,0,0.010850694444444444,146.96180555555554,0)" xlink:href="#aM"/></g><path fill="#1071e5" d="M101-265v-241l623-984h383v979h186v246h-186V0H814v-265H101zm719-246v-643h-12L409-523v12h411" id="aN"/><use transform="matrix(0.010850694444444444,0,0,0.010850694444444444,0,0)" xlink:href="#aN" id="A"/><path fill="#1071e5" d="M659 20C335 20 103-159 99-418h307c5 112 113 185 254 185 147 0 250-83 250-204 0-123-105-209-278-209H494v-227h138c145 0 246-81 246-200 0-115-87-193-216-193-130 0-237 73-240 189H128c4-255 233-433 536-433 306 0 510 185 510 418 0 167-114 285-279 317v11c217 29 333 162 333 347 0 254-237 437-569 437" id="aO"/><g id="B"><use transform="matrix(0.010850694444444444,0,0,0.010850694444444444,0,0)" xlink:href="#aO"/><use transform="matrix(0.010850694444444444,0,0,0.010850694444444444,13.878038194444445,0)" xlink:href="#an"/></g><g id="C"><use transform="matrix(0.010850694444444444,0,0,0.010850694444444444,0,0)" xlink:href="#ao"/><use transform="matrix(0.010850694444444444,0,0,0.010850694444444444,20.703125,0)" xlink:href="#ap"/><use transform="matrix(0.010850694444444444,0,0,0.010850694444444444,34.33159722222222,0)" xlink:href="#aq"/><use transform="matrix(0.010850694444444444,0,0,0.010850694444444444,46.77734375,0)" xlink:href="#ar"/><use transform="matrix(0.010850694444444444,0,0,0.010850694444444444,54.69835069444445,0)" xlink:href="#ap"/><use transform="matrix(0.010850694444444444,0,0,0.010850694444444444,68.32682291666667,0)" xlink:href="#aI"/><use transform="matrix(0.010850694444444444,0,0,0.010850694444444444,78.72178819444444,0)" xlink:href="#ay"/><use transform="matrix(0.010850694444444444,0,0,0.010850694444444444,93.12065972222221,0)" xlink:href="#aB"/><use transform="matrix(0.010850694444444444,0,0,0.010850694444444444,101.62760416666666,0)" xlink:href="#aJ"/></g><path fill="#1071e5" d="M666 20C332 20 94-158 94-400c0-186 139-340 321-370v-9c-159-33-267-168-267-331 0-230 219-400 518-400 298 0 519 171 519 400 0 163-111 298-266 331v9c177 30 321 184 321 370 0 242-241 420-574 420zm0-226c153 0 255-89 255-218 0-131-108-226-255-226-148 0-255 94-255 226 0 128 101 218 255 218zm0-668c127 0 220-84 220-203s-90-200-220-200-220 80-220 200c0 119 92 203 220 203" id="aP"/><g id="D"><use transform="matrix(0.010850694444444444,0,0,0.010850694444444444,0,0)" xlink:href="#aP"/><use transform="matrix(0.010850694444444444,0,0,0.010850694444444444,14.463975694444445,0)" xlink:href="#av"/></g><g id="E"><use transform="matrix(0.010850694444444444,0,0,0.010850694444444444,0,0)" xlink:href="#aP"/><use transform="matrix(0.010850694444444444,0,0,0.010850694444444444,13.997395833333332,0)" xlink:href="#an"/></g><path fill="#1071e5" d="M659 0H135v-1490h529c448 0 721 280 721 744 0 466-273 746-726 746zM440-263h204c287 0 437-148 437-483 0-333-150-481-435-481H440v964" id="aQ"/><path fill="#1071e5" d="M127-1118h301V57c1 278-186 374-478 361V182c116 8 177-28 177-129v-1171zm151-146c-90 0-165-68-165-154 0-85 75-154 165-154s165 69 165 154c0 86-75 154-165 154" id="aR"/><g id="F"><use transform="matrix(0.010850694444444444,0,0,0.010850694444444444,0,0)" xlink:href="#aQ"/><use transform="matrix(0.010850694444444444,0,0,0.010850694444444444,16.048177083333332,0)" xlink:href="#aB"/><use transform="matrix(0.010850694444444444,0,0,0.010850694444444444,24.55512152777778,0)" xlink:href="#aJ"/><use transform="matrix(0.010850694444444444,0,0,0.010850694444444444,37.79296875,0)" xlink:href="#aM"/><use transform="matrix(0.010850694444444444,0,0,0.010850694444444444,51.627604166666664,0)" xlink:href="#aA"/><use transform="matrix(0.010850694444444444,0,0,0.010850694444444444,64.52907986111111,0)" xlink:href="#aR"/><use transform="matrix(0.010850694444444444,0,0,0.010850694444444444,70.55121527777779,0)" xlink:href="#aJ"/></g><g id="G"><use transform="matrix(0.010850694444444444,0,0,0.010850694444444444,0,0)" xlink:href="#aO"/><use transform="matrix(0.010850694444444444,0,0,0.010850694444444444,14.344618055555555,0)" xlink:href="#av"/></g><use transform="matrix(0.010850694444444444,0,0,0.010850694444444444,0,0)" xlink:href="#aO" id="H"/><path fill="#1071e5" d="M636 22c-294 0-497-190-527-437h302c24 106 107 174 225 174 196 0 302-184 302-479h-10c-68 129-211 209-374 209-265 0-460-202-460-482 0-301 224-521 555-519 300 2 588 186 588 731 0 502-235 803-601 803zm11-757c147 0 260-121 260-268 0-144-109-265-258-265-147 0-258 117-258 267 0 151 108 266 256 266" id="aS"/><path fill="#1071e5" d="M177 0l620-1228v-10H75v-252h1041v256L494 0H177" id="aT"/><g id="I"><use transform="matrix(0.010850694444444444,0,0,0.010850694444444444,0,0)" xlink:href="#aS"/><use transform="matrix(0.010850694444444444,0,0,0.010850694444444444,14.43142361111111,0)" xlink:href="#aS"/><use transform="matrix(0.010850694444444444,0,0,0.010850694444444444,28.86284722222222,0)" xlink:href="#aS"/><use transform="matrix(0.010850694444444444,0,0,0.010850694444444444,42.643229166666664,0)" xlink:href="#an"/><use transform="matrix(0.010850694444444444,0,0,0.010850694444444444,49.50086805555556,0)" xlink:href="#aT"/><use transform="matrix(0.010850694444444444,0,0,0.010850694444444444,62.424045138888886,0)" xlink:href="#am"/><use transform="matrix(0.010850694444444444,0,0,0.010850694444444444,72.00520833333333,0)" xlink:href="#au"/><use transform="matrix(0.010850694444444444,0,0,0.010850694444444444,86.00260416666666,0)" xlink:href="#aD"/></g><g id="J"><use transform="matrix(0.010850694444444444,0,0,0.010850694444444444,0,0)" xlink:href="#aT"/><use transform="matrix(0.010850694444444444,0,0,0.010850694444444444,10.145399305555554,0)" xlink:href="#an"/></g><path fill="#1071e5" d="M571 0L49-1490h339c138 427 271 775 384 1244 111-471 237-815 371-1244h337L970 0H571" id="aU"/><path fill="#1071e5" d="M120 0v-182l551-686v-8H137v-242h897v199L514-250v8h539V0H120" id="aV"/><g id="K"><use transform="matrix(0.010850694444444444,0,0,0.010850694444444444,0,0)" xlink:href="#aU"/><use transform="matrix(0.010850694444444444,0,0,0.010850694444444444,16.590711805555554,0)" xlink:href="#aK"/><use transform="matrix(0.010850694444444444,0,0,0.010850694444444444,22.61284722222222,0)" xlink:href="#aM"/><use transform="matrix(0.010850694444444444,0,0,0.010850694444444444,36.447482638888886,0)" xlink:href="#aA"/><use transform="matrix(0.010850694444444444,0,0,0.010850694444444444,49.34895833333333,0)" xlink:href="#aV"/><use transform="matrix(0.010850694444444444,0,0,0.010850694444444444,62.07682291666666,0)" xlink:href="#aA"/><use transform="matrix(0.010850694444444444,0,0,0.010850694444444444,74.9782986111111,0)" xlink:href="#aq"/></g><g id="L"><use transform="matrix(0.010850694444444444,0,0,0.010850694444444444,0,0)" xlink:href="#aS"/><use transform="matrix(0.010850694444444444,0,0,0.010850694444444444,14.43142361111111,0)" xlink:href="#au"/></g><g id="M"><use transform="matrix(0.010850694444444444,0,0,0.010850694444444444,0,0)" xlink:href="#aS"/><use transform="matrix(0.010850694444444444,0,0,0.010850694444444444,14.43142361111111,0)" xlink:href="#aS"/><use transform="matrix(0.010850694444444444,0,0,0.010850694444444444,28.86284722222222,0)" xlink:href="#aS"/><use transform="matrix(0.010850694444444444,0,0,0.010850694444444444,42.643229166666664,0)" xlink:href="#an"/><use transform="matrix(0.010850694444444444,0,0,0.010850694444444444,49.50086805555556,0)" xlink:href="#aT"/><use transform="matrix(0.010850694444444444,0,0,0.010850694444444444,62.424045138888886,0)" xlink:href="#am"/><use transform="matrix(0.010850694444444444,0,0,0.010850694444444444,72.00520833333333,0)" xlink:href="#au"/><use transform="matrix(0.010850694444444444,0,0,0.010850694444444444,86.00260416666666,0)" xlink:href="#aD"/></g><g id="N"><use transform="matrix(0.010850694444444444,0,0,0.010850694444444444,0,0)" xlink:href="#aN"/><use transform="matrix(0.010850694444444444,0,0,0.010850694444444444,14.279513888888888,0)" xlink:href="#an"/></g><path fill="#1071e5" d="M135 0v-1490h305v1237h643V0H135" id="aW"/><path fill="#1071e5" d="M128 0v-1118h300V0H128zm41-1260l139-311h278l-207 311H169" id="aX"/><path fill="#1071e5" d="M1163 418H863v-597h-10C812-89 719 19 537 19 279 19 81-185 81-557c0-382 206-575 454-575 190 0 278 113 318 202h15v-188h295V418zM629-222c153 0 240-134 240-336 0-203-86-334-240-334-158 0-240 138-240 334 0 197 84 336 240 336" id="aY"/><path fill="#1071e5" d="M513 14c-232 0-385-159-385-421v-711h300v659c0 139 76 222 202 222 127 0 217-86 217-234v-647h301V0H864l-4-232C797-74 683 14 513 14" id="aZ"/><path fill="#1071e5" d="M537 19C279 19 81-185 81-557c0-382 206-575 454-575 190 0 278 113 318 202h10v-560h300V0H868v-179h-15C812-89 719 19 537 19zm92-241c153 0 240-134 240-336 0-203-86-334-240-334-158 0-240 138-240 334 0 197 84 336 240 336" id="ba"/><path fill="#1071e5" d="M428-1490V0H128v-1490h300" id="bb"/><g id="O"><use transform="matrix(0.010850694444444444,0,0,0.010850694444444444,0,0)" xlink:href="#aW"/><use transform="matrix(0.010850694444444444,0,0,0.010850694444444444,12.565104166666666,0)" xlink:href="#aX"/><use transform="matrix(0.010850694444444444,0,0,0.010850694444444444,18.587239583333332,0)" xlink:href="#aY"/><use transform="matrix(0.010850694444444444,0,0,0.010850694444444444,32.59548611111111,0)" xlink:href="#aZ"/><use transform="matrix(0.010850694444444444,0,0,0.010850694444444444,46.43012152777778,0)" xlink:href="#aK"/><use transform="matrix(0.010850694444444444,0,0,0.010850694444444444,52.452256944444436,0)" xlink:href="#ba"/><use transform="matrix(0.010850694444444444,0,0,0.010850694444444444,66.46050347222221,0)" xlink:href="#ap"/><use transform="matrix(0.010850694444444444,0,0,0.010850694444444444,80.08897569444443,0)" xlink:href="#aI"/><use transform="matrix(0.010850694444444444,0,0,0.010850694444444444,90.4839409722222,0)" xlink:href="#ax"/><use transform="matrix(0.010850694444444444,0,0,0.010850694444444444,106.92274305555553,0)" xlink:href="#aA"/><use transform="matrix(0.010850694444444444,0,0,0.010850694444444444,119.82421874999997,0)" xlink:href="#bb"/><use transform="matrix(0.010850694444444444,0,0,0.010850694444444444,125.84635416666664,0)" xlink:href="#aK"/><use transform="matrix(0.010850694444444444,0,0,0.010850694444444444,131.86848958333331,0)" xlink:href="#aJ"/><use transform="matrix(0.010850694444444444,0,0,0.010850694444444444,145.10633680555554,0)" xlink:href="#aM"/><use transform="matrix(0.010850694444444444,0,0,0.010850694444444444,158.9409722222222,0)" xlink:href="#ar"/><use transform="matrix(0.010850694444444444,0,0,0.010850694444444444,166.86197916666666,0)" xlink:href="#aJ"/></g><g id="P"><use transform="matrix(0.010850694444444444,0,0,0.010850694444444444,0,0)" xlink:href="#av"/><use transform="matrix(0.010850694444444444,0,0,0.010850694444444444,13.69357638888889,0)" xlink:href="#an"/></g><path fill="#1071e5" d="M128 418v-1536h295v188h14c41-89 129-202 319-202 248 0 453 193 453 575 0 372-197 576-455 576-183 0-275-108-317-198h-9v597H128zm534-640c156 0 240-139 240-336 0-196-83-334-240-334-154 0-241 131-241 334 0 202 88 336 241 336" id="bc"/><g id="Q"><use transform="matrix(0.010850694444444444,0,0,0.010850694444444444,0,0)" xlink:href="#aU"/><use transform="matrix(0.010850694444444444,0,0,0.010850694444444444,15.277777777777775,0)" xlink:href="#aA"/><use transform="matrix(0.010850694444444444,0,0,0.010850694444444444,28.17925347222222,0)" xlink:href="#bc"/><use transform="matrix(0.010850694444444444,0,0,0.010850694444444444,42.1875,0)" xlink:href="#ap"/><use transform="matrix(0.010850694444444444,0,0,0.010850694444444444,55.81597222222222,0)" xlink:href="#aB"/></g><g id="R"><use transform="matrix(0.010850694444444444,0,0,0.010850694444444444,0,0)" xlink:href="#aD"/><use transform="matrix(0.010850694444444444,0,0,0.010850694444444444,14.33376736111111,0)" xlink:href="#an"/><use transform="matrix(0.010850694444444444,0,0,0.010850694444444444,21.75564236111111,0)" xlink:href="#au"/><use transform="matrix(0.010850694444444444,0,0,0.010850694444444444,35.75303819444444,0)" xlink:href="#aP"/><use transform="matrix(0.010850694444444444,0,0,0.010850694444444444,50.217013888888886,0)" xlink:href="#aT"/><use transform="matrix(0.010850694444444444,0,0,0.010850694444444444,62.92317708333333,0)" xlink:href="#aS"/></g><path fill="#1071e5" d="M684 20C381 20 94-164 94-710c0-501 235-800 601-800 293 0 496 188 526 433H921c-25-105-108-170-226-170-197 0-301 182-301 476h10c67-130 211-208 374-208 263 0 459 201 459 481 0 301-224 518-553 518zm-2-242c147 0 258-116 258-268 0-150-108-266-256-266-146 0-259 121-259 267 0 147 109 267 257 267" id="bd"/><g id="S"><use transform="matrix(0.010850694444444444,0,0,0.010850694444444444,0,0)" xlink:href="#bd"/><use transform="matrix(0.010850694444444444,0,0,0.010850694444444444,13.76953125,0)" xlink:href="#an"/></g></defs></g></svg>