<svg xmlns="http://www.w3.org/2000/svg" xmlns:xlink="http://www.w3.org/1999/xlink" xmlns:lucid="lucid" width="2563" height="1106.7"><g transform="translate(201.5 -140)" lucid:page-tab-id="0_0"><path d="M92.14 379l-12.96 21 76.35-.6-16.2-24.2-.92.3" stroke="#635dff" stroke-width="3" fill-opacity="0"/><path d="M80.57 324.4s2.16-4.1 3.24-5.7c.93-1.6 1.1-2.5 3.7-5.6 2.78-3 5.1-5.4 8.65-7.4 3.54-2.1 5.7-4.1 11.4-4.8 5.72-.8 7.57-.9 7.57-.9l57.38.2-.16 37.9-21.28-.1s.3 3.5.3 5.6c0 2.2.16 4.4-.46 7.7-.6 3.3-1.08 6.2-2.77 10.2-1.7 4-3.4 7-4.63 8.7-1.23 1.8-2 3-4.63 5.6-2.47 2.7-4 4-6.94 5.7-2.93 1.8-4.63 2.9-6.8 3.5-2.14.7-2.76 1.2-6.16 1.6-3.54.3-5.7.5-7.86.3-2.3-.3-4.93-.6-6.93-1.4-2-.8-5.4-2.4-7.4-3.6-1.86-1.2-2-.8-4.8-3.2-2.6-2.4-3.23-2.2-5.54-5.6-2.32-3.3-4.47-6.4-5.86-10.2-1.4-3.8-2.78-9.3-2.78-9.3M40.77 340.7h6.94v2h-6.93z" stroke="#635dff" stroke-width="3" fill-opacity="0"/><path d="M40.15 329.2h.93V355.4h-.93s-.15-.2-.15-.4v-25.4c0-.2.15-.4.15-.4zM47.25 334.9H99.7v14.4H47.24zM175.43 317.9h18.5s.16.1.16.3v1.6c0 .1-.16.3-.16.3h-18.5c-.16 0-.32-.2-.32-.3v-1.6c0-.2.16-.3.3-.3z" stroke="#635dff" stroke-width="3" fill-opacity="0"/><path d="M193.8 311.6c.3 0 .6.3.6.7v16c0 .4-.3.7-.6.7-.32 0-.48-.3-.48-.7v-16c0-.4.16-.7.47-.7z" stroke="#635dff" stroke-width="3" fill-opacity="0"/><use xlink:href="#a" transform="matrix(1,0,0,1,10,405) translate(78.26280381944444 28.08376736111111)"/><path d="M-198.5 341.9h81.38M-198.46 341.9H-200" stroke="#1071e5" stroke-width="3" fill="none"/><path d="M-101.35 341.9l-14.27 4.63v-9.27z" stroke="#1071e5" stroke-width="3" fill="#1071e5"/><path d="M-62 341.9h49.47a.03.03 0 0 0 .03-.03.03.03 0 0 1 .03-.03h30.35" stroke="#1071e5" stroke-width="3" fill="none"/><path d="M-61.96 343.37h-1.54v-2.95h1.54z" stroke="#1071e5" stroke-width=".05" fill="#1071e5"/><path d="M33.65 341.84l-14.27 4.64v-9.27z" stroke="#1071e5" stroke-width="3" fill="#1071e5"/><path d="M292.25 320h44.87a2.88 2.88 0 0 1 2.88 2.88M292.3 320h-4.55" stroke="#1071e5" stroke-width="3" fill="none"/><path d="M340 338.65l-4.63-14.27h9.26z" stroke="#1071e5" stroke-width="3" fill="#1071e5"/><path d="M197.4 318.33H226a.83.83 0 0 1 .82.84.83.83 0 0 0 .84.83h9.47" stroke="#1071e5" stroke-width="3" fill="none"/><path d="M197.44 319.8h-1.54v-2.94h1.54z" stroke="#1071e5" stroke-width=".05" fill="#1071e5"/><path d="M252.9 320l-14.27 4.63v-9.26z" stroke="#1071e5" stroke-width="3" fill="#1071e5"/><path d="M340 378v44.74a6 6 0 0 0 6 6h111.75" stroke="#1071e5" stroke-width="3" fill="none"/><path d="M341.48 378.04h-2.96v-1.54h2.96z" stroke="#1071e5" stroke-width=".05" fill="#1071e5"/><path d="M473.52 428.74l-14.27 4.64v-9.27z" stroke="#1071e5" stroke-width="3" fill="#1071e5"/><path d="M-40 403.5a6 6 0 0 1 6-6h147.33a6 6 0 0 1 6 6v121.68a6 6 0 0 1-6 6H-34a6 6 0 0 1-6-6z" fill="none"/><use xlink:href="#b" transform="matrix(1,0,0,1,-35,402.48571496212116) translate(0 21.685329861111114)"/><use xlink:href="#c" transform="matrix(1,0,0,1,-35,402.48571496212116) translate(0 53.950954861111114)"/><use xlink:href="#d" transform="matrix(1,0,0,1,-35,402.48571496212116) translate(34.42925347222222 53.950954861111114)"/><use xlink:href="#e" transform="matrix(1,0,0,1,-35,402.48571496212116) translate(67.89279513888889 53.950954861111114)"/><use xlink:href="#f" transform="matrix(1,0,0,1,-35,402.48571496212116) translate(0 86.21657986111111)"/><use xlink:href="#g" transform="matrix(1,0,0,1,-35,402.48571496212116) translate(34.74392361111111 86.21657986111111)"/><use xlink:href="#h" transform="matrix(1,0,0,1,-35,402.48571496212116) translate(49.58767361111111 86.21657986111111)"/><use xlink:href="#i" transform="matrix(1,0,0,1,-35,402.48571496212116) translate(0 118.48220486111111)"/><use xlink:href="#j" transform="matrix(1,0,0,1,-35,402.48571496212116) translate(40.625 118.48220486111111)"/><use xlink:href="#k" transform="matrix(1,0,0,1,-35,402.48571496212116) translate(100.42317708333334 118.48220486111111)"/><path d="M220 146a6 6 0 0 1 6-6h147.33a6 6 0 0 1 6 6v121.7a6 6 0 0 1-6 6H226a6 6 0 0 1-6-6z" fill="none"/><use xlink:href="#l" transform="matrix(1,0,0,1,225,145) translate(0 21.685329861111114)"/><use xlink:href="#c" transform="matrix(1,0,0,1,225,145) translate(0 53.950954861111114)"/><use xlink:href="#d" transform="matrix(1,0,0,1,225,145) translate(34.42925347222222 53.950954861111114)"/><use xlink:href="#e" transform="matrix(1,0,0,1,225,145) translate(67.89279513888889 53.950954861111114)"/><use xlink:href="#f" transform="matrix(1,0,0,1,225,145) translate(0 86.21657986111111)"/><use xlink:href="#m" transform="matrix(1,0,0,1,225,145) translate(34.74392361111111 86.21657986111111)"/><use xlink:href="#h" transform="matrix(1,0,0,1,225,145) translate(55.034722222222214 86.21657986111111)"/><use xlink:href="#i" transform="matrix(1,0,0,1,225,145) translate(0 118.48220486111111)"/><use xlink:href="#j" transform="matrix(1,0,0,1,225,145) translate(40.625 118.48220486111111)"/><use xlink:href="#k" transform="matrix(1,0,0,1,225,145) translate(100.42317708333334 118.48220486111111)"/><g stroke="#ba23f6" stroke-width="3" fill-opacity="0"><path d="M491.16 453.5s-11.34-4.94-11.34-24.13c0-19.2 11.34-25.57 11.34-25.57h155.88S660 408.55 660 428.68c0 20.07-12.96 24.82-12.96 24.82H491.16z"/><path d="M639.3 397.5a3.96 3.96 0 0 1 3.96 3.95v54.2a3.96 3.96 0 0 1-3.96 3.97 3.96 3.96 0 0 1-3.96-3.96v-54.2a3.96 3.96 0 0 1 3.96-3.97zM498.27 398.3a3.87 3.87 0 0 1 3.87 3.87v54.4a3.87 3.87 0 0 1-3.87 3.87 3.87 3.87 0 0 1-3.87-3.87v-54.4a3.87 3.87 0 0 1 3.87-3.87zM624.67 412a2.75 2.75 0 0 1 2.75 2.74 2.75 2.75 0 0 1-2.75 2.75H512.45a2.75 2.75 0 0 1-2.75-2.76 2.75 2.75 0 0 1 2.75-2.75zM624.67 425.24a2.75 2.75 0 0 1 2.75 2.75 2.75 2.75 0 0 1-2.75 2.74H512.45a2.75 2.75 0 0 1-2.75-2.75 2.75 2.75 0 0 1 2.75-2.76zM624.7 440a2.72 2.72 0 0 1 2.72 2.7 2.72 2.72 0 0 1-2.72 2.73H512.42a2.72 2.72 0 0 1-2.72-2.72 2.72 2.72 0 0 1 2.72-2.7z"/></g><use xlink:href="#n" transform="matrix(6.123233995736766e-17,1,-1,6.123233995736766e-17,475,367.48571496212116) translate(26.191840277777786 28.08376736111111)"/><path d="M570 456.5v46.38" stroke="#1071e5" stroke-width="3" fill="none"/><path d="M571.48 456.54h-2.96V455h2.96z" stroke="#1071e5" stroke-width=".05" fill="#1071e5"/><path d="M570 518.65l-4.63-14.27h9.26z" stroke="#1071e5" stroke-width="3" fill="#1071e5"/><path d="M570 558.5v72.24a6 6 0 0 0 6 6h239.96" stroke="#1071e5" stroke-width="4" fill="none"/><path d="M571.98 558.55H568v-2.05H572z" stroke="#1071e5" stroke-width=".05" fill="#1071e5"/><path d="M832.23 636.74l-14.27 4.64v-9.27z" stroke="#1071e5" stroke-width="4" fill="#1071e5"/><path d="M840 640.4v-.4a40 40 0 0 1 40-40 40 40 0 0 1 40 40 40 40 0 0 1-40 40 40 40 0 0 1-40-40v-.4" stroke="#d916a8" stroke-width="3" fill-opacity="0"/><path d="M840 640h5a12.07 12.07 0 0 0 8.54-3.54l12.22-12.22a4.32 4.32 0 0 1 6.92 1.13l14.64 29.26a4.32 4.32 0 0 0 6.92 1.13l12.22-12.22A12.07 12.07 0 0 1 915 640h5" stroke="#d916a8" stroke-width="3" fill-opacity="0"/><use xlink:href="#o" transform="matrix(1,0,0,1,820,685) translate(24.339192708333336 28.08376736111111)"/><path d="M640 481.47a6 6 0 0 1 6-6h147.33a6 6 0 0 1 6 6v121.7a6 6 0 0 1-6 6H646a6 6 0 0 1-6-6z" fill="none"/><use xlink:href="#p" transform="matrix(1,0,0,1,645,480.46875000000006) translate(0 21.685329861111114)"/><use xlink:href="#c" transform="matrix(1,0,0,1,645,480.46875000000006) translate(0 53.950954861111114)"/><use xlink:href="#q" transform="matrix(1,0,0,1,645,480.46875000000006) translate(34.42925347222222 53.950954861111114)"/><use xlink:href="#e" transform="matrix(1,0,0,1,645,480.46875000000006) translate(68.359375 53.950954861111114)"/><use xlink:href="#f" transform="matrix(1,0,0,1,645,480.46875000000006) translate(0 86.21657986111111)"/><use xlink:href="#m" transform="matrix(1,0,0,1,645,480.46875000000006) translate(34.74392361111111 86.21657986111111)"/><use xlink:href="#h" transform="matrix(1,0,0,1,645,480.46875000000006) translate(55.034722222222214 86.21657986111111)"/><use xlink:href="#i" transform="matrix(1,0,0,1,645,480.46875000000006) translate(0 118.48220486111111)"/><use xlink:href="#j" transform="matrix(1,0,0,1,645,480.46875000000006) translate(40.625 118.48220486111111)"/><use xlink:href="#k" transform="matrix(1,0,0,1,645,480.46875000000006) translate(100.42317708333334 118.48220486111111)"/><path d="M620 212.3a6 6 0 0 1 6-6h199.24a6 6 0 0 1 6 6V334a6 6 0 0 1-6 6H626a6 6 0 0 1-6-6z" fill="none"/><use xlink:href="#r" transform="matrix(1,0,0,1,625,211.3051041666667) translate(0 21.685329861111114)"/><use xlink:href="#c" transform="matrix(1,0,0,1,625,211.3051041666667) translate(0 53.950954861111114)"/><use xlink:href="#s" transform="matrix(1,0,0,1,625,211.3051041666667) translate(34.42925347222222 53.950954861111114)"/><use xlink:href="#e" transform="matrix(1,0,0,1,625,211.3051041666667) translate(130.21918402777777 53.950954861111114)"/><use xlink:href="#f" transform="matrix(1,0,0,1,625,211.3051041666667) translate(0 86.21657986111111)"/><use xlink:href="#t" transform="matrix(1,0,0,1,625,211.3051041666667) translate(34.74392361111111 86.21657986111111)"/><use xlink:href="#h" transform="matrix(1,0,0,1,625,211.3051041666667) translate(54.351128472222214 86.21657986111111)"/><use xlink:href="#i" transform="matrix(1,0,0,1,625,211.3051041666667) translate(0 118.48220486111111)"/><use xlink:href="#u" transform="matrix(1,0,0,1,625,211.3051041666667) translate(40.625 118.48220486111111)"/><use xlink:href="#k" transform="matrix(1,0,0,1,625,211.3051041666667) translate(152.33289930555554 118.48220486111111)"/><path d="M2358.5 625.04h-15.05m-15.05 0h-30.1m-15.06 0h-30.1m-15.06 0h-30.1m-15.05 0h-30.1m-15.06 0h-30.1m-15.05 0h-30.1m-15.06 0h-30.1m-15.06 0h-30.1m-15.05 0h-30.1m-15.06 0h-30.1m-15.07 0h-30.1m-15.05 0h-30.1m-15.06 0h-30.1m-15.05 0h-30.1m-15.06 0h-30.1m-15.04 0h-30.1m-15.06 0h-30.1m-15.06 0h-30.1m-15.05 0h-30.12m-15.05 0h-30.1m-15.06 0h-30.1m-15.05 0h-30.1m-15.06 0h-30.1m-15.05 0h-30.1m-15.05 0h-30.1m-15.06 0h-30.1m-15.06 0h-30.1m-15.06 0h-30.1m-15.05 0h-30.1m-15.06 0h-30.1m-15.06 0h-15.04a.1.1 0 0 1-.1-.1.1.1 0 0 0-.08-.08h-19.3M2358.46 625.04h1.54" stroke="#008a0e" stroke-width="3" fill="none"/><path d="M923.42 624.86l14.27-4.63v9.27z" stroke="#008a0e" stroke-width="3" fill="#008a0e"/><path d="M917.7 660.24h12.8m12.8 0h12.8a.12.12 0 0 0 .1-.12.12.12 0 0 1 .13-.12h14.87m14.88 0h29.74m14.87 0h29.73m14.87 0h29.75m14.87 0h29.74m14.87 0h29.75m14.87 0h29.74m14.86 0h29.75m14.88 0h29.74m14.87 0h29.73m14.88 0h29.75m14.87 0h29.74m14.87 0h29.75m14.87 0h29.74m14.86 0h29.75m14.88 0h29.74m14.87 0h29.74m14.87 0h29.75m14.87 0h29.74m14.88 0h29.74m14.87 0h29.74m14.86 0h29.75m14.88 0h29.74m14.87 0h29.74m14.87 0h29.75m14.87 0h29.74m14.88 0h29.74m14.87 0h29.74m14.86 0h29.75m14.88 0h29.74m14.87 0h29.74m14.87 0h14.88" stroke="#008a0e" stroke-width="3" fill="none"/><path d="M917.75 661.72h-2.47l1.17-1.85.5-1.1h.8z" stroke="#008a0e" stroke-width=".05" fill="#008a0e"/><path d="M2355.15 660l-14.27 4.63v-9.26z" stroke="#008a0e" stroke-width="3" fill="#008a0e"/><path d="M1240 546a6 6 0 0 1 6-6h99.37a6 6 0 0 1 6 6v57.16a6 6 0 0 1-6 6H1246a6 6 0 0 1-6-6z" fill="none"/><use xlink:href="#v" transform="matrix(1,0,0,1,1245,545) translate(0 21.95095486111111)"/><use xlink:href="#w" transform="matrix(1,0,0,1,1245,545) translate(0 54.21657986111111)"/><use xlink:href="#x" transform="matrix(1,0,0,1,1245,545) translate(65.40798611111111 54.21657986111111)"/><path d="M142.8 246.12c0 15.17-11.8 27.47-26.33 27.47-14.55 0-26.34-12.3-26.34-27.48 0-15.17 11.8-27.47 26.34-27.47s26.33 12.3 26.33 27.47z" stroke="#fff" stroke-width="2" fill-opacity="0"/><path d="M90.13 166a6 6 0 0 1 6-6h63.26a6 6 0 0 1 6 6v24.9a6 6 0 0 1-6 6H96.12a6 6 0 0 1-6-6z" fill="none"/><use xlink:href="#y" transform="matrix(1,0,0,1,95.13258680555555,165) translate(0 21.58376736111111)"/><path d="M-167.33 217.54a6 6 0 0 1 6-6h94.47a6 6 0 0 1 6 6v57.16a6 6 0 0 1-6 6h-94.47a6 6 0 0 1-6-6z" fill="none"/><use xlink:href="#z" transform="matrix(1,0,0,1,-162.33333333333337,216.539375) translate(0 21.95095486111111)"/><use xlink:href="#A" transform="matrix(1,0,0,1,-162.33333333333337,216.539375) translate(0 54.21657986111111)"/><use xlink:href="#x" transform="matrix(1,0,0,1,-162.33333333333337,216.539375) translate(60.514322916666664 54.21657986111111)"/><path d="M880 683v151a6 6 0 0 0 6 6h56.88" stroke="#1071e5" stroke-width="3" fill="none"/><path d="M879.98 681.5l1.5-.05v1.6h-2.96v-1.64z" stroke="#1071e5" stroke-width=".05" fill="#1071e5"/><path d="M958.65 840l-14.27 4.63v-9.26z" stroke="#1071e5" stroke-width="3" fill="#1071e5"/><path d="M998 840h233.32M998.04 840h-4.54" stroke="#1071e5" stroke-width="3" fill="none"/><path d="M1247.1 840l-14.28 4.63v-9.26z" stroke="#1071e5" stroke-width="3" fill="#1071e5"/><path d="M714.25 726a6 6 0 0 1 6-6h147.33a6 6 0 0 1 6 6v121.7a6 6 0 0 1-6 6H720.25a6 6 0 0 1-6-6z" fill="none"/><use xlink:href="#B" transform="matrix(1,0,0,1,719.24828125,725) translate(0 21.685329861111114)"/><use xlink:href="#c" transform="matrix(1,0,0,1,719.24828125,725) translate(0 53.950954861111114)"/><use xlink:href="#C" transform="matrix(1,0,0,1,719.24828125,725) translate(34.42925347222222 53.950954861111114)"/><use xlink:href="#e" transform="matrix(1,0,0,1,719.24828125,725) translate(68.32682291666666 53.950954861111114)"/><use xlink:href="#f" transform="matrix(1,0,0,1,719.24828125,725) translate(0 86.21657986111111)"/><use xlink:href="#m" transform="matrix(1,0,0,1,719.24828125,725) translate(34.74392361111111 86.21657986111111)"/><use xlink:href="#h" transform="matrix(1,0,0,1,719.24828125,725) translate(55.034722222222214 86.21657986111111)"/><use xlink:href="#i" transform="matrix(1,0,0,1,719.24828125,725) translate(0 118.48220486111111)"/><use xlink:href="#j" transform="matrix(1,0,0,1,719.24828125,725) translate(40.625 118.48220486111111)"/><use xlink:href="#k" transform="matrix(1,0,0,1,719.24828125,725) translate(100.42317708333334 118.48220486111111)"/><path d="M960 826a6 6 0 0 1 6-6h28a6 6 0 0 1 6 6v28a6 6 0 0 1-6 6h-28a6 6 0 0 1-6-6z" fill="none"/><path d="M964 830v20l15-10zm15 10h2zm2 0l15-10v20zM980 840v-12m-8 0c0-2.2 3.58-4 8-4s8 1.8 8 4z" stroke="#fcce14" fill-opacity="0"/><use xlink:href="#D" transform="matrix(1,0,0,1,940,865) translate(-27.6540798611111 28.08376736111111)"/><path d="M1007.12 750c0 16.57-12.14 30-27.12 30s-27.12-13.43-27.12-30 12.14-30 27.12-30 27.12 13.43 27.12 30z" stroke="#fff" stroke-width="2" fill-opacity="0"/><use xlink:href="#E" transform="matrix(1,0,0,1,957.875859375,725) translate(9.379131944444444 18.39409722222222)"/><use xlink:href="#F" transform="matrix(1,0,0,1,957.875859375,725) translate(7.399965277777776 44.206597222222214)"/><path d="M980 781.5v25.6" stroke="#fff" fill="none"/><path d="M979.98 781l.5-.02v.53h-.96v-.54z" stroke="#fff" stroke-width=".05" fill="#fff"/><path d="M980 821.88l-4.63-14.27h9.26z" stroke="#fff" fill="#fff"/><path d="M1040 706a6 6 0 0 1 6-6h147.33a6 6 0 0 1 6 6v121.7a6 6 0 0 1-6 6H1046a6 6 0 0 1-6-6z" fill="none"/><use xlink:href="#G" transform="matrix(1,0,0,1,1045,705) translate(0 21.685329861111114)"/><use xlink:href="#c" transform="matrix(1,0,0,1,1045,705) translate(0 53.950954861111114)"/><use xlink:href="#C" transform="matrix(1,0,0,1,1045,705) translate(34.42925347222222 53.950954861111114)"/><use xlink:href="#e" transform="matrix(1,0,0,1,1045,705) translate(68.32682291666666 53.950954861111114)"/><use xlink:href="#f" transform="matrix(1,0,0,1,1045,705) translate(0 86.21657986111111)"/><use xlink:href="#g" transform="matrix(1,0,0,1,1045,705) translate(34.74392361111111 86.21657986111111)"/><use xlink:href="#h" transform="matrix(1,0,0,1,1045,705) translate(49.58767361111111 86.21657986111111)"/><use xlink:href="#i" transform="matrix(1,0,0,1,1045,705) translate(0 118.48220486111111)"/><use xlink:href="#j" transform="matrix(1,0,0,1,1045,705) translate(40.625 118.48220486111111)"/><use xlink:href="#k" transform="matrix(1,0,0,1,1045,705) translate(100.42317708333334 118.48220486111111)"/><path d="M1253.44 780v120c0 11.05 17.9 20 40 20s40-8.95 40-20V780c0-11.05-17.9-20-40-20s-40 8.95-40 20z" stroke="#e81313" stroke-width="3" fill-opacity="0"/><path d="M1253.44 800h80m-80 20h80m-80 60h80m-80-20h80" stroke="#e81313" fill-opacity="0"/><use xlink:href="#H" transform="matrix(1,0,0,1,1253.4425,925) translate(8.294270833333336 28.08376736111111)"/><path d="M1293.44 757v-70a6 6 0 0 1 6-6h378.68a1.88 1.88 0 0 1 1.88 1.88" stroke="#1071e5" stroke-width="3" fill="none"/><path d="M1294.92 758.55l-1.5-.05-1.45.1v-1.64h2.95z" stroke="#1071e5" stroke-width=".05" fill="#1071e5"/><path d="M1680 698.65l-4.63-14.27h9.27z" stroke="#1071e5" stroke-width="3" fill="#1071e5"/><path d="M1680 738v19.88" stroke="#1071e5" stroke-width="3" fill="none"/><path d="M1681.47 738.04h-2.94v-1.54h2.94z" stroke="#1071e5" stroke-width=".05" fill="#1071e5"/><path d="M1680 773.64l-4.63-14.26h9.27z" stroke="#1071e5" stroke-width="3" fill="#1071e5"/><path d="M1074.66 966a6 6 0 0 1 6-6h199.24a6 6 0 0 1 6 6v121.7a6 6 0 0 1-6 6h-199.24a6 6 0 0 1-6-6z" fill="none"/><use xlink:href="#I" transform="matrix(1,0,0,1,1079.6607986111112,965) translate(0 21.685329861111114)"/><use xlink:href="#c" transform="matrix(1,0,0,1,1079.6607986111112,965) translate(0 53.950954861111114)"/><use xlink:href="#J" transform="matrix(1,0,0,1,1079.6607986111112,965) translate(34.42925347222222 53.950954861111114)"/><use xlink:href="#e" transform="matrix(1,0,0,1,1079.6607986111112,965) translate(124.46831597222223 53.950954861111114)"/><use xlink:href="#f" transform="matrix(1,0,0,1,1079.6607986111112,965) translate(0 86.21657986111111)"/><use xlink:href="#t" transform="matrix(1,0,0,1,1079.6607986111112,965) translate(34.74392361111111 86.21657986111111)"/><use xlink:href="#h" transform="matrix(1,0,0,1,1079.6607986111112,965) translate(54.351128472222214 86.21657986111111)"/><use xlink:href="#i" transform="matrix(1,0,0,1,1079.6607986111112,965) translate(0 118.48220486111111)"/><use xlink:href="#u" transform="matrix(1,0,0,1,1079.6607986111112,965) translate(40.625 118.48220486111111)"/><use xlink:href="#k" transform="matrix(1,0,0,1,1079.6607986111112,965) translate(152.33289930555554 118.48220486111111)"/><path d="M2358.5 800h-15.44m-15.44 0h-30.9m-15.43 0h-30.9m-15.43 0h-30.9m-15.43 0h-30.88m-15.45 0h-30.87m-15.44 0h-30.9m-15.44 0h-30.88m-15.44 0h-30.9m-15.43 0h-30.87m-15.44 0h-30.9m-15.44 0h-30.88m-15.44 0h-30.9m-15.43 0h-15.43a.12.12 0 0 1-.12-.12.12.12 0 0 0-.13-.12h-19.25M2358.46 800h1.54" stroke="#008a0e" stroke-width="3" fill="none"/><path d="M1721 799.76l14.27-4.64v9.27z" stroke="#008a0e" stroke-width="3" fill="#008a0e"/><path d="M1720.56 833.86h12.8m12.8 0H1759a.08.08 0 0 0 .08-.08.08.08 0 0 1 .1-.08h14.87m14.87 0h29.76m14.88 0h29.75m14.87 0h29.75m14.88 0h29.76m14.88 0h29.75m14.87 0h29.76m14.87 0h29.76m14.88 0h29.75m14.87 0h29.76m14.87 0h29.76m14.88 0H2265m14.87 0h29.76m14.87 0h14.88" stroke="#008a0e" stroke-width="3" fill="none"/><path d="M1720.6 835.34h-2.03l.06-.14.9-2.8h1.07z" stroke="#008a0e" stroke-width=".05" fill="#008a0e"/><path d="M2355.15 833.7l-14.27 4.63v-9.27z" stroke="#008a0e" stroke-width="3" fill="#008a0e"/><path d="M510.18 456.5v37.93a.57.57 0 0 0 .57.57.57.57 0 0 1 .57.57V1174a6 6 0 0 0 6 6h1802.06" stroke="#1071e5" stroke-width="3" fill="none"/><path d="M511.65 456.54h-2.95V455h2.95z" stroke="#1071e5" stroke-width=".05" fill="#1071e5"/><path d="M2335.15 1180l-14.27 4.63v-9.27z" stroke="#1071e5" stroke-width="3" fill="#1071e5"/><path d="M1680 863v371a6 6 0 0 0 6 6h653.38" stroke="#1071e5" stroke-width="3" fill="none"/><path d="M1679.98 861.5l1.5-.05v1.6h-2.95v-1.64z" stroke="#1071e5" stroke-width=".05" fill="#1071e5"/><path d="M2355.15 1240l-14.27 4.63v-9.27z" stroke="#1071e5" stroke-width="3" fill="#1071e5"/><path d="M1778 1040h39.48a.02.02 0 0 0 .02-.02.02.02 0 0 1 .02-.02h20.36" stroke="#1071e5" stroke-width="3" fill="none"/><path d="M1778.04 1041.47h-1.54v-2.94h1.54z" stroke="#1071e5" stroke-width=".05" fill="#1071e5"/><path d="M1853.65 1039.96l-14.27 4.63v-9.28z" stroke="#1071e5" stroke-width="3" fill="#1071e5"/><path d="M2098 1043.46h104.88M2098.04 1043.46h-4.54" stroke="#1071e5" stroke-width="3" fill="none"/><path d="M2218.65 1043.46l-14.27 4.64v-9.27z" stroke="#1071e5" stroke-width="3" fill="#1071e5"/><path d="M1943 1043.46h99.88" stroke="#1071e5" stroke-width="3" fill="none"/><path d="M1943.04 1044.94h-1.54V1042h1.54z" stroke="#1071e5" stroke-width=".05" fill="#1071e5"/><path d="M2058.65 1043.46l-14.27 4.64v-9.27z" stroke="#1071e5" stroke-width="3" fill="#1071e5"/><path d="M-58.5 260h12.98m12.98 0h25.96m12.98 0h12.98M-58.46 260H-60" stroke="#008a0e" stroke-width="3" fill="none"/><path d="M35.15 260l-14.27 4.63v-9.26z" stroke="#008a0e" stroke-width="3" fill="#008a0e"/><path d="M1293.44 923v111a6 6 0 0 0 6 6h423.44" stroke="#1071e5" stroke-width="3" fill="none"/><path d="M1294.92 923.04h-2.95v-1.6l1.5.06 1.45-.1z" stroke="#1071e5" stroke-width=".05" fill="#1071e5"/><path d="M1738.65 1040l-14.27 4.63v-9.27z" stroke="#1071e5" stroke-width="3" fill="#1071e5"/><path d="M1744 1030v20l15-10zm15 10h2zm2 0l15-10v20zM1760 1030v20" stroke="#fcce14" fill-opacity="0"/><g><use xlink:href="#K" transform="matrix(1,0,0,1,1720,1065) translate(-0.8040364583333286 28.08376736111111)"/></g><path d="M1640 820.4v-.4a40 40 0 0 1 40-40 40 40 0 0 1 40 40 40 40 0 0 1-40 40 40 40 0 0 1-40-40v-.4" stroke="#cc4e00" stroke-width="3" fill-opacity="0"/><path d="M1640 820h5a12.07 12.07 0 0 0 8.54-3.54l12.22-12.22a4.32 4.32 0 0 1 6.92 1.13l14.64 29.26a4.32 4.32 0 0 0 6.92 1.13l12.22-12.22A12.07 12.07 0 0 1 1715 820h5" stroke="#cc4e00" stroke-width="3" fill-opacity="0"/><g><use xlink:href="#L" transform="matrix(1,0,0,1,1620,865) translate(24.35004340277778 28.08376736111111)"/></g><path d="M1920 686a6 6 0 0 1 6-6h90.1a6 6 0 0 1 6 6v89.43a6 6 0 0 1-6 6H1926a6 6 0 0 1-6-6z" fill="none"/><g><use xlink:href="#M" transform="matrix(1,0,0,1,1925,685) translate(0 21.818142361111114)"/><use xlink:href="#N" transform="matrix(1,0,0,1,1925,685) translate(0 54.083767361111114)"/><use xlink:href="#O" transform="matrix(1,0,0,1,1925,685) translate(0 86.34939236111111)"/><use xlink:href="#x" transform="matrix(1,0,0,1,1925,685) translate(56.14149305555556 86.34939236111111)"/></g><path d="M1346.88 689.15a6 6 0 0 1 6-6h172.52a6 6 0 0 1 6 6v121.7a6 6 0 0 1-6 6h-172.52a6 6 0 0 1-6-6z" fill="none"/><g><use xlink:href="#P" transform="matrix(1,0,0,1,1351.885,688.1525520833334) translate(0 21.685329861111114)"/><use xlink:href="#c" transform="matrix(1,0,0,1,1351.885,688.1525520833334) translate(0 53.950954861111114)"/><use xlink:href="#J" transform="matrix(1,0,0,1,1351.885,688.1525520833334) translate(34.42925347222222 53.950954861111114)"/><use xlink:href="#e" transform="matrix(1,0,0,1,1351.885,688.1525520833334) translate(124.46831597222223 53.950954861111114)"/><use xlink:href="#f" transform="matrix(1,0,0,1,1351.885,688.1525520833334) translate(0 86.21657986111111)"/><use xlink:href="#g" transform="matrix(1,0,0,1,1351.885,688.1525520833334) translate(34.74392361111111 86.21657986111111)"/><use xlink:href="#h" transform="matrix(1,0,0,1,1351.885,688.1525520833334) translate(49.58767361111111 86.21657986111111)"/><use xlink:href="#i" transform="matrix(1,0,0,1,1351.885,688.1525520833334) translate(0 118.48220486111111)"/><use xlink:href="#Q" transform="matrix(1,0,0,1,1351.885,688.1525520833334) translate(40.625 118.48220486111111)"/><use xlink:href="#k" transform="matrix(1,0,0,1,1351.885,688.1525520833334) translate(125.60763888888889 118.48220486111111)"/></g><path d="M2258 1043.46h36a6 6 0 0 0 6-6V368.3a6 6 0 0 0-6-6H576a6 6 0 0 0-6 6v13.38" stroke="#1071e5" stroke-width="3" fill="none"/><path d="M2258.04 1044.94h-1.54V1042h1.54z" stroke="#1071e5" stroke-width=".05" fill="#1071e5"/><path d="M570 397.45l-4.63-14.27h9.26z" stroke="#1071e5" stroke-width="3" fill="#1071e5"/><g stroke="#fcce14" fill-opacity="0"><path d="M560 556h20l-10-15zm10-15v-2zm0-2l-10-15h20zM560 540h20"/></g><g><use xlink:href="#R" transform="matrix(6.123233995736766e-17,-1,1,6.123233995736766e-17,595,580) translate(-0.8745659722222214 28.08376736111111)"/></g><g stroke="#fcce14" fill-opacity="0"><path d="M1670 736h20l-10-15zm10-15v-2zm0-2l-10-15h20zM1670 720h20"/></g><g><use xlink:href="#S" transform="matrix(6.123233995736766e-17,-1,1,6.123233995736766e-17,1705,760) translate(-1.2163628472222214 28.08376736111111)"/></g><path d="M-96 331.9v20l15-10zm15 10h2zm2 0l15-10v20zM-80 331.9v20" stroke="#fcce14" fill-opacity="0"/><g><use xlink:href="#T" transform="matrix(1,0,0,1,-120,366.89627112943924) translate(1.5071614583333357 28.08376736111111)"/></g><path d="M2224 1033.46v20l15-10zm15 10h2zm2 0l15-10v20zM2240 1033.46v20" stroke="#fcce14" fill-opacity="0"/><g><use xlink:href="#U" transform="matrix(1,0,0,1,2200,1068.4645023137136) translate(-0.91796875 28.08376736111111)"/></g><g stroke="#fcce14" fill-opacity="0"><path d="M330 376h20l-10-15zm10-15v-2zm0-2l-10-15h20zM330 360h20"/></g><g><use xlink:href="#V" transform="matrix(6.123233995736766e-17,-1,1,6.123233995736766e-17,365,400) translate(-0.7009548611111072 28.08376736111111)"/></g><path d="M2060 1039.46a6 6 0 0 1 6-6h28a6 6 0 0 1 6 6v8a6 6 0 0 1-6 6h-28a6 6 0 0 1-6-6z" fill="none"/><path d="M2064 1053.46v-20l32 20v-20M2070 1029.46h20z" stroke="#fcce14" fill="none"/><path d="M2062 1033.48v-.02a2 2 0 0 1 2-2 2 2 0 0 1 2 2 2 2 0 0 1-2 2 2 2 0 0 1-2-2v-.02M2090 1029.46l-2-2v4z" stroke="#fcce14" fill="#fcce14"/><g><use xlink:href="#W" transform="matrix(1,0,0,1,2040,1068.4645023137136) translate(-0.9342447916666643 28.08376736111111)"/></g><path d="M1875.48 1012.82" stroke="#3a414a" fill="none"/><path stroke="#3a414a" stroke-width=".05" fill="#3a414a"/><path d="M1873.86 1012.82l-14.26 4.63v-9.27z" stroke="#3a414a" fill="#3a414a"/><path d="M254.25 316a6 6 0 0 1 6-6h28a6 6 0 0 1 6 6v8a6 6 0 0 1-6 6h-28a6 6 0 0 1-6-6z" fill="none"/><path d="M258.25 330v-20l32 20v-20M264.25 306h20z" stroke="#fcce14" fill="none"/><path d="M256.25 310.02V310a2 2 0 0 1 2-2 2 2 0 0 1 2 2 2 2 0 0 1-2 2 2 2 0 0 1-2-2v-.02M284.25 306l-2-2v4z" stroke="#fcce14" fill="#fcce14"/><g><use xlink:href="#X" transform="matrix(1,0,0,1,234.24828125,345) translate(0.05316840277778567 28.08376736111111)"/></g><path d="M1860 1010.97v65l80-17.5v-30z" stroke="#008573" stroke-width="3" fill-opacity="0"/><path d="M1860 993.47v12.5h4l-4 5 4-5h-4zM1940 1058.46v30h4l-4 5-4-5h4z" stroke="#008573" stroke-width="3" fill="#008573"/><g><use xlink:href="#Y" transform="matrix(1,0,0,1,1840,1098.4645023137136) translate(28.462456597222225 28.08376736111111)"/></g><path d="M1447.33 896.84a6 6 0 0 1 6-6h172.5a6 6 0 0 1 6 6v121.7a6 6 0 0 1-6 6h-172.5a6 6 0 0 1-6-6z" fill="none"/><g><use xlink:href="#Z" transform="matrix(1,0,0,1,1452.3303993055556,895.8363541666666) translate(0 21.685329861111114)"/><use xlink:href="#c" transform="matrix(1,0,0,1,1452.3303993055556,895.8363541666666) translate(0 53.950954861111114)"/><use xlink:href="#d" transform="matrix(1,0,0,1,1452.3303993055556,895.8363541666666) translate(34.42925347222222 53.950954861111114)"/><use xlink:href="#e" transform="matrix(1,0,0,1,1452.3303993055556,895.8363541666666) translate(67.89279513888889 53.950954861111114)"/><use xlink:href="#f" transform="matrix(1,0,0,1,1452.3303993055556,895.8363541666666) translate(0 86.21657986111111)"/><use xlink:href="#g" transform="matrix(1,0,0,1,1452.3303993055556,895.8363541666666) translate(34.74392361111111 86.21657986111111)"/><use xlink:href="#h" transform="matrix(1,0,0,1,1452.3303993055556,895.8363541666666) translate(49.58767361111111 86.21657986111111)"/><use xlink:href="#i" transform="matrix(1,0,0,1,1452.3303993055556,895.8363541666666) translate(0 118.48220486111111)"/><use xlink:href="#Q" transform="matrix(1,0,0,1,1452.3303993055556,895.8363541666666) translate(40.625 118.48220486111111)"/><use xlink:href="#k" transform="matrix(1,0,0,1,1452.3303993055556,895.8363541666666) translate(125.60763888888889 118.48220486111111)"/></g><path d="M117.12 298v-7.7" stroke="#e81313" fill="none"/><path d="M117.6 298.5h-.95v-.5h.95z" stroke="#e81313" stroke-width=".05" fill="#e81313"/><path d="M116.53 276.2l5.23 14.07-9.26.38z" stroke="#e81313" fill="#e81313"/><path d="M1926.33 935.4c0 15.16-11.8 27.46-26.33 27.46-14.54 0-26.33-12.3-26.33-27.47 0-15.18 11.8-27.48 26.33-27.48 14.54 0 26.33 12.3 26.33 27.47z" stroke="#fff" stroke-width="2" fill-opacity="0"/><path d="M1861.56 859.94a6 6 0 0 1 6-6h64.88a6 6 0 0 1 6 6v24.9a6 6 0 0 1-6 6h-64.88a6 6 0 0 1-6-6z" fill="none"/><g><use xlink:href="#aa" transform="matrix(1,0,0,1,1866.5640104166666,858.9383333333333) translate(0 21.58376736111111)"/></g><path d="M1900 1017.68v-37.44" stroke="#e81313" fill="none"/><path d="M1900.47 1018.28l-.94-.2v-.4h.94z" stroke="#e81313" stroke-width=".05" fill="#e81313"/><path d="M1900 965.48l4.63 14.26h-9.27z" stroke="#e81313" fill="#e81313"/><defs><path fill="#fff" d="M135 0v-1490h581c339 0 533 210 533 503 0 295-197 500-540 500H440V0H135zm305-733h220c186 0 274-104 274-254s-88-251-275-251H440v505" id="ab"/><path fill="#fff" d="M818-733v240H140v-240h678" id="ac"/><path fill="#fff" d="M749-1490V0H444v-1221h-10L93-980v-279l329-231h327" id="ad"/><path fill="#fff" d="M690 20C314 20 94-261 94-744c0-482 221-766 596-766 376 0 597 284 597 766 0 483-219 764-597 764zm0-253c184 0 286-184 286-511 0-328-102-514-286-514-183 0-285 187-285 514s101 511 285 511" id="ae"/><g id="a"><use transform="matrix(0.010850694444444444,0,0,0.010850694444444444,0,0)" xlink:href="#ab"/><use transform="matrix(0.010850694444444444,0,0,0.010850694444444444,13.932291666666666,0)" xlink:href="#ac"/><use transform="matrix(0.010850694444444444,0,0,0.010850694444444444,24.327256944444443,0)" xlink:href="#ad"/><use transform="matrix(0.010850694444444444,0,0,0.010850694444444444,33.908420138888886,0)" xlink:href="#ad"/><use transform="matrix(0.010850694444444444,0,0,0.010850694444444444,43.48958333333333,0)" xlink:href="#ae"/></g><path fill="#fff" d="M342 19c-98 0-173-75-173-172s75-172 173-172 173 75 173 172S440 19 342 19" id="af"/><g id="b"><use transform="matrix(0.010850694444444444,0,0,0.010850694444444444,0,0)" xlink:href="#ad"/><use transform="matrix(0.010850694444444444,0,0,0.010850694444444444,9.581163194444445,0)" xlink:href="#af"/></g><path fill="#fff" d="M75-1237v-253h1217v253H837V0H531v-1237H75" id="ag"/><path fill="#fff" d="M197-230v-252h997v252H197zm0-479v-251h997v251H197" id="ah"/><g id="c"><use transform="matrix(0.010850694444444444,0,0,0.010850694444444444,0,0)" xlink:href="#ag"/><use transform="matrix(0.010850694444444444,0,0,0.010850694444444444,14.084201388888888,0)" xlink:href="#ah"/></g><path fill="#fff" d="M124 0v-220l528-495c135-132 210-216 210-336 0-133-98-215-231-215-139 0-229 88-229 233H110c0-290 214-477 523-477 315 0 525 182 525 440 0 167-80 305-385 586L548-262v11h630V0H124" id="ai"/><path fill="#fff" d="M664 20c-306 0-529-183-535-438h297c6 117 110 196 238 196 149 0 255-108 255-266 0-159-108-270-261-270-89 0-178 39-224 98l-274-48 72-782h901v252H485l-39 377h8c53-72 165-124 294-124 269 0 467 204 467 490 0 300-224 515-551 515" id="aj"/><g id="d"><use transform="matrix(0.010850694444444444,0,0,0.010850694444444444,0,0)" xlink:href="#ai"/><use transform="matrix(0.010850694444444444,0,0,0.010850694444444444,13.997395833333332,0)" xlink:href="#aj"/></g><path fill="#fff" d="M471-789c-197 1-356-158-356-354 0-197 159-357 356-357 196 0 355 160 355 357 0 196-159 355-355 354zm0-201c84-1 153-69 153-153 0-85-69-153-153-153-85 0-153 68-153 153 0 84 68 152 153 153" id="ak"/><path fill="#fff" d="M786 20C389 20 94-260 94-744c0-487 299-766 692-766 339 0 597 194 641 529h-309c-28-162-156-258-326-258-233 0-388 179-388 495 0 323 157 493 387 493 170 0 298-97 328-259h309c-34 277-266 530-642 530" id="al"/><g id="e"><use transform="matrix(0.010850694444444444,0,0,0.010850694444444444,0,0)" xlink:href="#ak"/><use transform="matrix(0.010850694444444444,0,0,0.010850694444444444,9.830729166666666,0)" xlink:href="#al"/></g><g id="f"><use transform="matrix(0.010850694444444444,0,0,0.010850694444444444,0,0)" xlink:href="#ab"/><use transform="matrix(0.010850694444444444,0,0,0.010850694444444444,14.398871527777777,0)" xlink:href="#ah"/></g><use transform="matrix(0.010850694444444444,0,0,0.010850694444444444,0,0)" xlink:href="#ad" id="g"/><path fill="#fff" d="M754 19C571 19 479-89 437-179h-14V0H128v-1490h300v560h9c41-89 129-202 319-202 248 0 453 193 453 575 0 372-197 576-455 576zm-92-241c156 0 240-139 240-336 0-196-83-334-240-334-154 0-241 131-241 334 0 202 88 336 241 336" id="am"/><path fill="#fff" d="M440 22C227 22 68-92 68-313c0-250 202-322 422-343 195-21 271-24 271-105 0-95-63-149-175-149-116 0-187 57-211 129l-275-46c57-194 237-305 487-305 240 0 474 108 474 379V0H777v-155h-10C713-51 605 22 440 22zm85-211c140 0 238-93 238-211v-121c-37 26-156 42-222 51-111 16-185 59-185 149 0 87 70 132 169 132" id="an"/><path fill="#fff" d="M128 0v-1118h290v195h12c54-169 184-238 367-200v268c-27-8-86-15-130-15-138 0-239 95-239 234V0H128" id="ao"/><g id="h"><use transform="matrix(0.010850694444444444,0,0,0.010850694444444444,0,0)" xlink:href="#am"/><use transform="matrix(0.010850694444444444,0,0,0.010850694444444444,14.225260416666666,0)" xlink:href="#an"/><use transform="matrix(0.010850694444444444,0,0,0.010850694444444444,27.12673611111111,0)" xlink:href="#ao"/></g><path fill="#fff" d="M128 0v-1118h278l12 217c60-163 185-234 319-234 143 0 236 81 288 251 63-172 205-251 359-251 205 0 357 138 357 381V0h-301v-697c0-126-76-187-177-187-114 0-184 79-184 196V0H789v-705c0-109-72-179-174-179-106 0-187 74-187 208V0H128" id="ap"/><g id="i"><use transform="matrix(0.010850694444444444,0,0,0.010850694444444444,0,0)" xlink:href="#ap"/><use transform="matrix(0.010850694444444444,0,0,0.010850694444444444,20.279947916666664,0)" xlink:href="#ah"/></g><g id="j"><use transform="matrix(0.010850694444444444,0,0,0.010850694444444444,0,0)" xlink:href="#ad"/><use transform="matrix(0.010850694444444444,0,0,0.010850694444444444,9.581163194444445,0)" xlink:href="#ae"/><use transform="matrix(0.010850694444444444,0,0,0.010850694444444444,24.56597222222222,0)" xlink:href="#ae"/><use transform="matrix(0.010850694444444444,0,0,0.010850694444444444,39.55078125,0)" xlink:href="#ae"/></g><path fill="#fff" d="M128 0v-1490h300v802h17l366-430h347L740-633 1179 0H826L514-456l-86 97V0H128" id="aq"/><path fill="#fff" d="M625 442c-280 0-454-114-503-274l258-72c28 63 97 128 243 128 153 0 246-69 246-216v-206h-23C805-108 717-16 536-16 284-16 81-191 81-561c0-378 208-571 456-571 188 0 280 113 321 202h13v-188h295V-9c0 303-226 451-541 451zm5-686c153 0 240-119 240-319 0-198-86-329-240-329-158 0-241 137-241 329 0 195 85 319 241 319" id="ar"/><path fill="#fff" d="M768-1560L288 224H28l480-1784h260" id="as"/><path fill="#fff" d="M428-647V0H128v-1490h294v586c65-146 175-228 341-228 232 0 385 159 385 421V0H847v-659c0-139-76-222-202-222-128 0-217 86-217 234" id="at"/><g id="k"><use transform="matrix(0.010850694444444444,0,0,0.010850694444444444,0,0)" xlink:href="#aq"/><use transform="matrix(0.010850694444444444,0,0,0.010850694444444444,12.391493055555555,0)" xlink:href="#ar"/><use transform="matrix(0.010850694444444444,0,0,0.010850694444444444,26.432291666666664,0)" xlink:href="#as"/><use transform="matrix(0.010850694444444444,0,0,0.010850694444444444,35.05859375,0)" xlink:href="#at"/></g><g id="l"><use transform="matrix(0.010850694444444444,0,0,0.010850694444444444,0,0)" xlink:href="#ai"/><use transform="matrix(0.010850694444444444,0,0,0.010850694444444444,13.997395833333332,0)" xlink:href="#af"/></g><path fill="#fff" d="M101-265v-241l623-984h383v979h186v246h-186V0H814v-265H101zm719-246v-643h-12L409-523v12h411" id="au"/><use transform="matrix(0.010850694444444444,0,0,0.010850694444444444,0,0)" xlink:href="#au" id="m"/><path fill="#fff" d="M449 0L49-1490h333c89 395 194 758 253 1185 65-426 176-790 269-1185h317c93 394 201 758 268 1181 60-425 164-788 253-1181h334L1675 0h-348c-90-376-204-711-266-1118C1004-714 886-373 798 0H449" id="av"/><g id="n"><use transform="matrix(0.010850694444444444,0,0,0.010850694444444444,0,0)" xlink:href="#av"/><use transform="matrix(0.010850694444444444,0,0,0.010850694444444444,22.135416666666664,0)" xlink:href="#ac"/><use transform="matrix(0.010850694444444444,0,0,0.010850694444444444,32.052951388888886,0)" xlink:href="#ai"/><use transform="matrix(0.010850694444444444,0,0,0.010850694444444444,46.05034722222221,0)" xlink:href="#ad"/><use transform="matrix(0.010850694444444444,0,0,0.010850694444444444,55.63151041666666,0)" xlink:href="#ae"/></g><path fill="#fff" d="M659 20C335 20 103-159 99-418h307c5 112 113 185 254 185 147 0 250-83 250-204 0-123-105-209-278-209H494v-227h138c145 0 246-81 246-200 0-115-87-193-216-193-130 0-237 73-240 189H128c4-255 233-433 536-433 306 0 510 185 510 418 0 167-114 285-279 317v11c217 29 333 162 333 347 0 254-237 437-569 437" id="aw"/><g id="o"><use transform="matrix(0.010850694444444444,0,0,0.010850694444444444,0,0)" xlink:href="#av"/><use transform="matrix(0.010850694444444444,0,0,0.010850694444444444,22.135416666666664,0)" xlink:href="#ac"/><use transform="matrix(0.010850694444444444,0,0,0.010850694444444444,32.41102430555555,0)" xlink:href="#aw"/><use transform="matrix(0.010850694444444444,0,0,0.010850694444444444,46.75564236111111,0)" xlink:href="#ad"/><use transform="matrix(0.010850694444444444,0,0,0.010850694444444444,56.33680555555555,0)" xlink:href="#ae"/></g><g id="p"><use transform="matrix(0.010850694444444444,0,0,0.010850694444444444,0,0)" xlink:href="#aw"/><use transform="matrix(0.010850694444444444,0,0,0.010850694444444444,13.878038194444445,0)" xlink:href="#af"/></g><path fill="#fff" d="M666 20C332 20 94-158 94-400c0-186 139-340 321-370v-9c-159-33-267-168-267-331 0-230 219-400 518-400 298 0 519 171 519 400 0 163-111 298-266 331v9c177 30 321 184 321 370 0 242-241 420-574 420zm0-226c153 0 255-89 255-218 0-131-108-226-255-226-148 0-255 94-255 226 0 128 101 218 255 218zm0-668c127 0 220-84 220-203s-90-200-220-200-220 80-220 200c0 119 92 203 220 203" id="ax"/><g id="q"><use transform="matrix(0.010850694444444444,0,0,0.010850694444444444,0,0)" xlink:href="#ax"/><use transform="matrix(0.010850694444444444,0,0,0.010850694444444444,14.463975694444445,0)" xlink:href="#aj"/></g><g id="r"><use transform="matrix(0.010850694444444444,0,0,0.010850694444444444,0,0)" xlink:href="#au"/><use transform="matrix(0.010850694444444444,0,0,0.010850694444444444,14.279513888888888,0)" xlink:href="#af"/></g><path fill="#fff" d="M636 22c-294 0-497-190-527-437h302c24 106 107 174 225 174 196 0 302-184 302-479h-10c-68 129-211 209-374 209-265 0-460-202-460-482 0-301 224-521 555-519 300 2 588 186 588 731 0 502-235 803-601 803zm11-757c147 0 260-121 260-268 0-144-109-265-258-265-147 0-258 117-258 267 0 151 108 266 256 266" id="ay"/><path fill="#fff" d="M177 0l620-1228v-10H75v-252h1041v256L494 0H177" id="az"/><g id="s"><use transform="matrix(0.010850694444444444,0,0,0.010850694444444444,0,0)" xlink:href="#aw"/><use transform="matrix(0.010850694444444444,0,0,0.010850694444444444,14.344618055555555,0)" xlink:href="#ay"/><use transform="matrix(0.010850694444444444,0,0,0.010850694444444444,28.125,0)" xlink:href="#af"/><use transform="matrix(0.010850694444444444,0,0,0.010850694444444444,34.982638888888886,0)" xlink:href="#az"/><use transform="matrix(0.010850694444444444,0,0,0.010850694444444444,47.68880208333333,0)" xlink:href="#ay"/><use transform="matrix(0.010850694444444444,0,0,0.010850694444444444,62.12022569444444,0)" xlink:href="#aj"/><use transform="matrix(0.010850694444444444,0,0,0.010850694444444444,76.32378472222221,0)" xlink:href="#aj"/></g><use transform="matrix(0.010850694444444444,0,0,0.010850694444444444,0,0)" xlink:href="#aw" id="t"/><g id="u"><use transform="matrix(0.010850694444444444,0,0,0.010850694444444444,0,0)" xlink:href="#ay"/><use transform="matrix(0.010850694444444444,0,0,0.010850694444444444,14.43142361111111,0)" xlink:href="#ay"/><use transform="matrix(0.010850694444444444,0,0,0.010850694444444444,28.86284722222222,0)" xlink:href="#ae"/><use transform="matrix(0.010850694444444444,0,0,0.010850694444444444,43.19661458333333,0)" xlink:href="#af"/><use transform="matrix(0.010850694444444444,0,0,0.010850694444444444,50.47743055555556,0)" xlink:href="#aj"/><use transform="matrix(0.010850694444444444,0,0,0.010850694444444444,64.68098958333333,0)" xlink:href="#aj"/><use transform="matrix(0.010850694444444444,0,0,0.010850694444444444,78.8845486111111,0)" xlink:href="#az"/><use transform="matrix(0.010850694444444444,0,0,0.010850694444444444,91.4605034722222,0)" xlink:href="#ae"/></g><path fill="#fff" d="M135 0v-1490h997v253H440v360h640v249H440v375h694V0H135" id="aA"/><g id="v"><use transform="matrix(0.010850694444444444,0,0,0.010850694444444444,0,0)" xlink:href="#aA"/><use transform="matrix(0.010850694444444444,0,0,0.010850694444444444,13.49826388888889,0)" xlink:href="#ai"/><use transform="matrix(0.010850694444444444,0,0,0.010850694444444444,27.49565972222222,0)" xlink:href="#af"/></g><g id="w"><use transform="matrix(0.010850694444444444,0,0,0.010850694444444444,0,0)" xlink:href="#ad"/><use transform="matrix(0.010850694444444444,0,0,0.010850694444444444,9.581163194444445,0)" xlink:href="#au"/><use transform="matrix(0.010850694444444444,0,0,0.010850694444444444,23.860677083333336,0)" xlink:href="#af"/><use transform="matrix(0.010850694444444444,0,0,0.010850694444444444,30.77256944444445,0)" xlink:href="#aw"/><use transform="matrix(0.010850694444444444,0,0,0.010850694444444444,45.1171875,0)" xlink:href="#au"/></g><g id="x"><use transform="matrix(0.010850694444444444,0,0,0.010850694444444444,0,0)" xlink:href="#aq"/><use transform="matrix(0.010850694444444444,0,0,0.010850694444444444,12.890625,0)" xlink:href="#av"/></g><path fill="#fff" d="M135 0v-1490h468l242 684c30 94 76 293 111 455 34-161 80-360 110-455l238-684h470V0h-307c0-447-3-765 11-1227-122 503-246 788-395 1227H826C676-435 552-717 427-1215c15 453 11 775 11 1215H135" id="aB"/><g id="y"><use transform="matrix(0.010850694444444444,0,0,0.010850694444444444,0,0)" xlink:href="#aB"/><use transform="matrix(0.010850694444444444,0,0,0.010850694444444444,20.703125,0)" xlink:href="#ac"/><use transform="matrix(0.010850694444444444,0,0,0.010850694444444444,31.098090277777775,0)" xlink:href="#ad"/><use transform="matrix(0.010850694444444444,0,0,0.010850694444444444,40.67925347222222,0)" xlink:href="#ad"/><use transform="matrix(0.010850694444444444,0,0,0.010850694444444444,50.260416666666664,0)" xlink:href="#ae"/></g><g id="z"><use transform="matrix(0.010850694444444444,0,0,0.010850694444444444,0,0)" xlink:href="#aA"/><use transform="matrix(0.010850694444444444,0,0,0.010850694444444444,13.49826388888889,0)" xlink:href="#ad"/><use transform="matrix(0.010850694444444444,0,0,0.010850694444444444,23.079427083333336,0)" xlink:href="#af"/></g><g id="A"><use transform="matrix(0.010850694444444444,0,0,0.010850694444444444,0,0)" xlink:href="#ae"/><use transform="matrix(0.010850694444444444,0,0,0.010850694444444444,14.33376736111111,0)" xlink:href="#af"/><use transform="matrix(0.010850694444444444,0,0,0.010850694444444444,21.104600694444443,0)" xlink:href="#ae"/><use transform="matrix(0.010850694444444444,0,0,0.010850694444444444,36.08940972222222,0)" xlink:href="#ad"/><use transform="matrix(0.010850694444444444,0,0,0.010850694444444444,45.670572916666664,0)" xlink:href="#ad"/></g><g id="B"><use transform="matrix(0.010850694444444444,0,0,0.010850694444444444,0,0)" xlink:href="#aj"/><use transform="matrix(0.010850694444444444,0,0,0.010850694444444444,13.69357638888889,0)" xlink:href="#af"/></g><g id="C"><use transform="matrix(0.010850694444444444,0,0,0.010850694444444444,0,0)" xlink:href="#ay"/><use transform="matrix(0.010850694444444444,0,0,0.010850694444444444,14.43142361111111,0)" xlink:href="#aj"/></g><path fill="#fff" d="M571 0L49-1490h339c138 427 271 775 384 1244 111-471 237-815 371-1244h337L970 0H571" id="aC"/><g id="D"><use transform="matrix(0.010850694444444444,0,0,0.010850694444444444,0,0)" xlink:href="#au"/><use transform="matrix(0.010850694444444444,0,0,0.010850694444444444,15.028211805555555,0)" xlink:href="#ae"/><use transform="matrix(0.010850694444444444,0,0,0.010850694444444444,30.013020833333332,0)" xlink:href="#ae"/><use transform="matrix(0.010850694444444444,0,0,0.010850694444444444,44.99782986111111,0)" xlink:href="#ac"/><use transform="matrix(0.010850694444444444,0,0,0.010850694444444444,55.392795138888886,0)" xlink:href="#al"/><use transform="matrix(0.010850694444444444,0,0,0.010850694444444444,71.83159722222221,0)" xlink:href="#aC"/><use transform="matrix(0.010850694444444444,0,0,0.010850694444444444,87.15277777777777,0)" xlink:href="#ac"/><use transform="matrix(0.010850694444444444,0,0,0.010850694444444444,97.54774305555556,0)" xlink:href="#au"/><use transform="matrix(0.010850694444444444,0,0,0.010850694444444444,111.72960069444441,0)" xlink:href="#ad"/><use transform="matrix(0.010850694444444444,0,0,0.010850694444444444,121.31076388888887,0)" xlink:href="#ai"/></g><path fill="#fff" d="M783 20c-382 0-661-292-661-764 0-473 279-766 661-766 302 0 548 182 601 489h-190c-42-204-217-313-411-313-268 0-476 208-476 590 0 381 209 588 476 588 195 0 369-110 411-313h190c-52 303-296 489-601 489" id="aD"/><path fill="#fff" d="M600 0L52-1490h200c166 485 304 806 458 1336 156-533 285-846 449-1336h202L819 0H600" id="aE"/><g id="E"><use transform="matrix(0.008680555555555556,0,0,0.008680555555555556,0,0)" xlink:href="#aD"/><use transform="matrix(0.008680555555555556,0,0,0.008680555555555556,12.986111111111112,0)" xlink:href="#aE"/></g><path fill="#fff" d="M120-303v-155l652-1032h231v1020h202v167h-202V0H821v-303H120zm702-167v-782h-12L323-482v12h499" id="aF"/><path fill="#fff" d="M653-1490V0H466v-1314h-10L96-1047v-204l324-239h233" id="aG"/><path fill="#fff" d="M154 0v-137l495-537c165-179 249-281 249-418 0-156-121-253-280-253-170 0-278 110-278 278H158c0-264 200-443 465-443 266 0 455 183 455 416 0 161-73 288-336 568L416-179v12h687V0H154" id="aH"/><g id="F"><use transform="matrix(0.008680555555555556,0,0,0.008680555555555556,0,0)" xlink:href="#aF"/><use transform="matrix(0.008680555555555556,0,0,0.008680555555555556,11.137152777777779,0)" xlink:href="#aG"/><use transform="matrix(0.008680555555555556,0,0,0.008680555555555556,18.368055555555557,0)" xlink:href="#aH"/></g><path fill="#fff" d="M684 20C381 20 94-164 94-710c0-501 235-800 601-800 293 0 496 188 526 433H921c-25-105-108-170-226-170-197 0-301 182-301 476h10c67-130 211-208 374-208 263 0 459 201 459 481 0 301-224 518-553 518zm-2-242c147 0 258-116 258-268 0-150-108-266-256-266-146 0-259 121-259 267 0 147 109 267 257 267" id="aI"/><g id="G"><use transform="matrix(0.010850694444444444,0,0,0.010850694444444444,0,0)" xlink:href="#aI"/><use transform="matrix(0.010850694444444444,0,0,0.010850694444444444,13.76953125,0)" xlink:href="#af"/></g><path fill="#fff" d="M135 0v-1490h305c1 251 0 501-5 746 157-254 405-512 598-746h373L849-845 1422 0h-361L638-644 440-426V0H135" id="aJ"/><g id="H"><use transform="matrix(0.010850694444444444,0,0,0.010850694444444444,0,0)" xlink:href="#aJ"/><use transform="matrix(0.010850694444444444,0,0,0.010850694444444444,14.268663194444445,0)" xlink:href="#ac"/><use transform="matrix(0.010850694444444444,0,0,0.010850694444444444,24.66362847222222,0)" xlink:href="#au"/><use transform="matrix(0.010850694444444444,0,0,0.010850694444444444,38.84548611111111,0)" xlink:href="#ad"/><use transform="matrix(0.010850694444444444,0,0,0.010850694444444444,48.42664930555556,0)" xlink:href="#ae"/></g><g id="I"><use transform="matrix(0.010850694444444444,0,0,0.010850694444444444,0,0)" xlink:href="#ad"/><use transform="matrix(0.010850694444444444,0,0,0.010850694444444444,9.581163194444445,0)" xlink:href="#ae"/><use transform="matrix(0.010850694444444444,0,0,0.010850694444444444,23.914930555555554,0)" xlink:href="#af"/></g><g id="J"><use transform="matrix(0.010850694444444444,0,0,0.010850694444444444,0,0)" xlink:href="#ay"/><use transform="matrix(0.010850694444444444,0,0,0.010850694444444444,14.43142361111111,0)" xlink:href="#ai"/><use transform="matrix(0.010850694444444444,0,0,0.010850694444444444,28.428819444444443,0)" xlink:href="#af"/><use transform="matrix(0.010850694444444444,0,0,0.010850694444444444,33.84331597222222,0)" xlink:href="#ad"/><use transform="matrix(0.010850694444444444,0,0,0.010850694444444444,43.424479166666664,0)" xlink:href="#az"/><use transform="matrix(0.010850694444444444,0,0,0.010850694444444444,56.34765625,0)" xlink:href="#ai"/><use transform="matrix(0.010850694444444444,0,0,0.010850694444444444,70.34505208333333,0)" xlink:href="#ay"/></g><path fill="#fff" d="M135 0v-1490h305v602h649v-602h306V0h-306v-635H440V0H135" id="aK"/><path fill="#fff" d="M49 0l509-1490h400L1480 0h-339l-115-346H497L386 0H49zm524-585h374c-75-213-124-402-192-666-66 268-110 453-182 666" id="aL"/><g id="K"><use transform="matrix(0.010850694444444444,0,0,0.010850694444444444,0,0)" xlink:href="#aK"/><use transform="matrix(0.010850694444444444,0,0,0.010850694444444444,16.6015625,0)" xlink:href="#aL"/><use transform="matrix(0.010850694444444444,0,0,0.010850694444444444,32.443576388888886,0)" xlink:href="#ac"/><use transform="matrix(0.010850694444444444,0,0,0.010850694444444444,42.838541666666664,0)" xlink:href="#ad"/><use transform="matrix(0.010850694444444444,0,0,0.010850694444444444,52.41970486111111,0)" xlink:href="#ae"/><use transform="matrix(0.010850694444444444,0,0,0.010850694444444444,67.40451388888889,0)" xlink:href="#aj"/></g><g id="L"><use transform="matrix(0.010850694444444444,0,0,0.010850694444444444,0,0)" xlink:href="#av"/><use transform="matrix(0.010850694444444444,0,0,0.010850694444444444,22.135416666666664,0)" xlink:href="#ac"/><use transform="matrix(0.010850694444444444,0,0,0.010850694444444444,32.53038194444444,0)" xlink:href="#aj"/><use transform="matrix(0.010850694444444444,0,0,0.010850694444444444,46.73394097222222,0)" xlink:href="#ad"/><use transform="matrix(0.010850694444444444,0,0,0.010850694444444444,56.315104166666664,0)" xlink:href="#ae"/></g><g id="M"><use transform="matrix(0.010850694444444444,0,0,0.010850694444444444,0,0)" xlink:href="#ax"/><use transform="matrix(0.010850694444444444,0,0,0.010850694444444444,13.997395833333332,0)" xlink:href="#af"/></g><g id="N"><use transform="matrix(0.010850694444444444,0,0,0.010850694444444444,0,0)" xlink:href="#aA"/><use transform="matrix(0.010850694444444444,0,0,0.010850694444444444,13.49826388888889,0)" xlink:href="#aw"/><use transform="matrix(0.010850694444444444,0,0,0.010850694444444444,27.376302083333336,0)" xlink:href="#af"/></g><g id="O"><use transform="matrix(0.010850694444444444,0,0,0.010850694444444444,0,0)" xlink:href="#au"/><use transform="matrix(0.010850694444444444,0,0,0.010850694444444444,14.279513888888888,0)" xlink:href="#af"/><use transform="matrix(0.010850694444444444,0,0,0.010850694444444444,21.419270833333336,0)" xlink:href="#ay"/><use transform="matrix(0.010850694444444444,0,0,0.010850694444444444,35.85069444444444,0)" xlink:href="#au"/></g><g id="P"><use transform="matrix(0.010850694444444444,0,0,0.010850694444444444,0,0)" xlink:href="#az"/><use transform="matrix(0.010850694444444444,0,0,0.010850694444444444,10.145399305555554,0)" xlink:href="#af"/></g><g id="Q"><use transform="matrix(0.010850694444444444,0,0,0.010850694444444444,0,0)" xlink:href="#ay"/><use transform="matrix(0.010850694444444444,0,0,0.010850694444444444,13.780381944444445,0)" xlink:href="#af"/><use transform="matrix(0.010850694444444444,0,0,0.010850694444444444,21.202256944444443,0)" xlink:href="#au"/><use transform="matrix(0.010850694444444444,0,0,0.010850694444444444,36.23046875,0)" xlink:href="#au"/><use transform="matrix(0.010850694444444444,0,0,0.010850694444444444,51.25868055555556,0)" xlink:href="#ai"/><use transform="matrix(0.010850694444444444,0,0,0.010850694444444444,65.25607638888889,0)" xlink:href="#ax"/></g><g id="R"><use transform="matrix(0.010850694444444444,0,0,0.010850694444444444,0,0)" xlink:href="#aK"/><use transform="matrix(0.010850694444444444,0,0,0.010850694444444444,16.6015625,0)" xlink:href="#aL"/><use transform="matrix(0.010850694444444444,0,0,0.010850694444444444,32.443576388888886,0)" xlink:href="#ac"/><use transform="matrix(0.010850694444444444,0,0,0.010850694444444444,42.838541666666664,0)" xlink:href="#ad"/><use transform="matrix(0.010850694444444444,0,0,0.010850694444444444,52.41970486111111,0)" xlink:href="#ae"/><use transform="matrix(0.010850694444444444,0,0,0.010850694444444444,67.40451388888889,0)" xlink:href="#aw"/></g><g id="S"><use transform="matrix(0.010850694444444444,0,0,0.010850694444444444,0,0)" xlink:href="#aK"/><use transform="matrix(0.010850694444444444,0,0,0.010850694444444444,16.6015625,0)" xlink:href="#aL"/><use transform="matrix(0.010850694444444444,0,0,0.010850694444444444,32.443576388888886,0)" xlink:href="#ac"/><use transform="matrix(0.010850694444444444,0,0,0.010850694444444444,42.838541666666664,0)" xlink:href="#ad"/><use transform="matrix(0.010850694444444444,0,0,0.010850694444444444,52.41970486111111,0)" xlink:href="#ae"/><use transform="matrix(0.010850694444444444,0,0,0.010850694444444444,67.40451388888889,0)" xlink:href="#au"/></g><g id="T"><use transform="matrix(0.010850694444444444,0,0,0.010850694444444444,0,0)" xlink:href="#aK"/><use transform="matrix(0.010850694444444444,0,0,0.010850694444444444,16.6015625,0)" xlink:href="#aL"/><use transform="matrix(0.010850694444444444,0,0,0.010850694444444444,32.443576388888886,0)" xlink:href="#ac"/><use transform="matrix(0.010850694444444444,0,0,0.010850694444444444,42.838541666666664,0)" xlink:href="#ad"/><use transform="matrix(0.010850694444444444,0,0,0.010850694444444444,52.41970486111111,0)" xlink:href="#ae"/><use transform="matrix(0.010850694444444444,0,0,0.010850694444444444,67.40451388888889,0)" xlink:href="#ad"/></g><g id="U"><use transform="matrix(0.010850694444444444,0,0,0.010850694444444444,0,0)" xlink:href="#aK"/><use transform="matrix(0.010850694444444444,0,0,0.010850694444444444,16.6015625,0)" xlink:href="#aL"/><use transform="matrix(0.010850694444444444,0,0,0.010850694444444444,32.443576388888886,0)" xlink:href="#ac"/><use transform="matrix(0.010850694444444444,0,0,0.010850694444444444,42.838541666666664,0)" xlink:href="#ad"/><use transform="matrix(0.010850694444444444,0,0,0.010850694444444444,52.41970486111111,0)" xlink:href="#ae"/><use transform="matrix(0.010850694444444444,0,0,0.010850694444444444,67.40451388888889,0)" xlink:href="#aI"/></g><g id="V"><use transform="matrix(0.010850694444444444,0,0,0.010850694444444444,0,0)" xlink:href="#aK"/><use transform="matrix(0.010850694444444444,0,0,0.010850694444444444,16.6015625,0)" xlink:href="#aL"/><use transform="matrix(0.010850694444444444,0,0,0.010850694444444444,32.443576388888886,0)" xlink:href="#ac"/><use transform="matrix(0.010850694444444444,0,0,0.010850694444444444,42.838541666666664,0)" xlink:href="#ad"/><use transform="matrix(0.010850694444444444,0,0,0.010850694444444444,52.41970486111111,0)" xlink:href="#ae"/><use transform="matrix(0.010850694444444444,0,0,0.010850694444444444,67.40451388888889,0)" xlink:href="#ai"/></g><g id="W"><use transform="matrix(0.010850694444444444,0,0,0.010850694444444444,0,0)" xlink:href="#aK"/><use transform="matrix(0.010850694444444444,0,0,0.010850694444444444,16.6015625,0)" xlink:href="#aL"/><use transform="matrix(0.010850694444444444,0,0,0.010850694444444444,32.443576388888886,0)" xlink:href="#ac"/><use transform="matrix(0.010850694444444444,0,0,0.010850694444444444,42.838541666666664,0)" xlink:href="#ad"/><use transform="matrix(0.010850694444444444,0,0,0.010850694444444444,52.41970486111111,0)" xlink:href="#ae"/><use transform="matrix(0.010850694444444444,0,0,0.010850694444444444,67.40451388888889,0)" xlink:href="#ax"/></g><g id="X"><use transform="matrix(0.010850694444444444,0,0,0.010850694444444444,0,0)" xlink:href="#aK"/><use transform="matrix(0.010850694444444444,0,0,0.010850694444444444,16.6015625,0)" xlink:href="#aL"/><use transform="matrix(0.010850694444444444,0,0,0.010850694444444444,32.443576388888886,0)" xlink:href="#ac"/><use transform="matrix(0.010850694444444444,0,0,0.010850694444444444,42.838541666666664,0)" xlink:href="#ad"/><use transform="matrix(0.010850694444444444,0,0,0.010850694444444444,52.41970486111111,0)" xlink:href="#ae"/><use transform="matrix(0.010850694444444444,0,0,0.010850694444444444,66.9704861111111,0)" xlink:href="#az"/></g><g id="Y"><use transform="matrix(0.010850694444444444,0,0,0.010850694444444444,0,0)" xlink:href="#ab"/><use transform="matrix(0.010850694444444444,0,0,0.010850694444444444,13.932291666666666,0)" xlink:href="#ac"/><use transform="matrix(0.010850694444444444,0,0,0.010850694444444444,24.327256944444443,0)" xlink:href="#au"/><use transform="matrix(0.010850694444444444,0,0,0.010850694444444444,38.50911458333333,0)" xlink:href="#ad"/><use transform="matrix(0.010850694444444444,0,0,0.010850694444444444,48.09027777777778,0)" xlink:href="#ae"/></g><g id="Z"><use transform="matrix(0.010850694444444444,0,0,0.010850694444444444,0,0)" xlink:href="#ay"/><use transform="matrix(0.010850694444444444,0,0,0.010850694444444444,13.780381944444445,0)" xlink:href="#af"/></g><path fill="#fff" d="M180 0v-1490h270l367 940c28 72 75 218 110 339 35-117 81-264 110-339l362-940h271V0h-187c2-448-5-837 7-1287-157 497-311 829-483 1287H842C666-458 514-784 354-1284c12 438 5 843 7 1284H180" id="aM"/><path fill="#fff" d="M798-719v166H144v-166h654" id="aN"/><path fill="#fff" d="M626 20c-262 0-458-168-468-396h184c12 133 134 229 284 229 180 0 311-137 311-326 0-192-136-335-323-335-92 0-196 33-255 78l-178-22 88-738h784v167H429l-51 435h8c61-51 160-87 263-87 273 0 474 211 474 499 0 286-210 496-497 496" id="aO"/><path fill="#fff" d="M646 20c-332 0-524-278-524-764 0-483 194-766 524-766s524 283 524 766c0 485-191 764-524 764zm0-166c218 0 341-220 341-598 0-380-123-601-341-601s-341 222-341 601c0 378 123 598 341 598" id="aP"/><g id="aa"><use transform="matrix(0.010850694444444444,0,0,0.010850694444444444,0,0)" xlink:href="#aM"/><use transform="matrix(0.010850694444444444,0,0,0.010850694444444444,20.07378472222222,0)" xlink:href="#aN"/><use transform="matrix(0.010850694444444444,0,0,0.010850694444444444,30.29513888888889,0)" xlink:href="#aO"/><use transform="matrix(0.010850694444444444,0,0,0.010850694444444444,43.804253472222214,0)" xlink:href="#aG"/><use transform="matrix(0.010850694444444444,0,0,0.010850694444444444,52.842881944444436,0)" xlink:href="#aP"/></g></defs></g></svg>